<svg width="539" height="134" viewBox="0 0 539 134" fill="none" xmlns="http://www.w3.org/2000/svg">
<path d="M253.688 73.7605C253.208 73.7605 252.668 73.7125 252.068 73.6165C251.492 73.5205 250.94 73.4005 250.412 73.2565C249.908 73.1125 249.512 72.9565 249.224 72.7885C249.056 72.6925 248.924 72.5965 248.828 72.5005C248.756 72.3805 248.72 72.1885 248.72 71.9245L248.54 66.2725C248.54 65.7925 248.696 65.5525 249.008 65.5525C249.272 65.5525 249.452 65.7685 249.548 66.2005L249.872 67.5685C250.688 71.0005 252.212 72.7165 254.444 72.7165C255.644 72.7165 256.592 72.3205 257.288 71.5285C258.008 70.7125 258.368 69.5725 258.368 68.1085C258.368 66.6925 257.996 65.3725 257.252 64.1485C256.532 62.9245 255.368 61.7125 253.76 60.5125C251.984 59.2405 250.688 58.0165 249.872 56.8405C249.056 55.6405 248.648 54.3685 248.648 53.0245C248.648 51.2485 249.26 49.8325 250.484 48.7765C251.732 47.6965 253.316 47.1565 255.236 47.1565C255.956 47.1565 256.652 47.2405 257.324 47.4085C257.996 47.5765 258.548 47.8165 258.98 48.1285C259.124 48.2245 259.232 48.3325 259.304 48.4525C259.4 48.5725 259.448 48.7285 259.448 48.9205L259.556 54.3565C259.556 54.7645 259.4 54.9685 259.088 54.9685C258.872 54.9685 258.716 54.8005 258.62 54.4645L258.368 53.5645C257.84 51.7165 257.288 50.3725 256.712 49.5325C256.16 48.6685 255.356 48.2365 254.3 48.2365C253.268 48.2365 252.44 48.5725 251.816 49.2445C251.216 49.9165 250.916 50.8645 250.916 52.0885C250.916 53.1205 251.252 54.1045 251.924 55.0405C252.596 55.9765 253.772 57.1165 255.452 58.4605C257.252 59.9245 258.56 61.3405 259.376 62.7085C260.216 64.0525 260.636 65.4925 260.636 67.0285C260.636 68.3725 260.336 69.5485 259.736 70.5565C259.136 71.5645 258.308 72.3565 257.252 72.9325C256.22 73.4845 255.032 73.7605 253.688 73.7605ZM267.599 73.7605C266.999 73.7605 266.423 73.6285 265.871 73.3645C265.319 73.1005 264.863 72.6805 264.503 72.1045C264.143 71.5285 263.963 70.7605 263.963 69.8005V57.2725C263.963 56.8405 263.891 56.5405 263.747 56.3725C263.627 56.2045 263.399 56.1085 263.063 56.0845L262.451 56.0125C262.043 55.9645 261.839 55.8085 261.839 55.5445C261.839 55.2325 262.067 55.0765 262.523 55.0765H265.871C266.231 55.0765 266.411 55.2565 266.411 55.6165V69.0445C266.411 70.1485 266.615 70.9405 267.023 71.4205C267.455 71.8765 268.043 72.1045 268.787 72.1045C269.531 72.1045 270.191 71.9005 270.767 71.4925C271.343 71.0605 271.799 70.4965 272.135 69.8005C272.495 69.0805 272.675 68.3005 272.675 67.4605V57.2725C272.675 56.8405 272.603 56.5405 272.459 56.3725C272.339 56.2045 272.111 56.1085 271.775 56.0845L271.163 56.0125C270.755 55.9645 270.551 55.8085 270.551 55.5445C270.551 55.2325 270.779 55.0765 271.235 55.0765H274.583C274.943 55.0765 275.123 55.2565 275.123 55.6165V69.5845C275.123 70.0165 275.183 70.3165 275.303 70.4845C275.447 70.6285 275.687 70.7245 276.023 70.7725L276.779 70.8805C277.091 70.9045 277.247 71.0245 277.247 71.2405C277.247 71.4565 277.055 71.6005 276.671 71.6725C275.927 71.7685 275.327 71.9605 274.871 72.2485C274.439 72.5365 274.055 72.8845 273.719 73.2925C273.503 73.5085 273.323 73.6165 273.179 73.6165C272.963 73.6165 272.855 73.4725 272.855 73.1845V71.5285C272.855 71.3365 272.783 71.2285 272.639 71.2045C272.519 71.1565 272.387 71.2045 272.243 71.3485C271.355 72.2365 270.563 72.8605 269.867 73.2205C269.195 73.5805 268.439 73.7605 267.599 73.7605ZM278.763 80.8165C278.403 80.8165 278.223 80.6845 278.223 80.4205C278.223 80.1565 278.379 80.0125 278.691 79.9885L279.195 79.9165C279.699 79.8445 280.023 79.7005 280.167 79.4845C280.335 79.2685 280.419 78.9085 280.419 78.4045V58.9285C280.419 58.4965 280.347 58.2085 280.203 58.0645C280.083 57.8965 279.855 57.7885 279.519 57.7405L278.763 57.6325C278.451 57.6085 278.295 57.4765 278.295 57.2365C278.295 57.0445 278.487 56.9125 278.871 56.8405C279.615 56.7205 280.179 56.5285 280.563 56.2645C280.971 56.0005 281.391 55.6765 281.823 55.2925C282.039 55.0765 282.219 54.9685 282.363 54.9685C282.579 54.9685 282.687 55.1125 282.687 55.4005V56.5165C282.687 56.6845 282.759 56.8045 282.903 56.8765C283.047 56.9245 283.215 56.8525 283.407 56.6605L283.803 56.2645C284.283 55.7845 284.775 55.4365 285.279 55.2205C285.783 54.9805 286.359 54.8605 287.007 54.8605C288.111 54.8605 289.083 55.2325 289.923 55.9765C290.787 56.6965 291.459 57.7045 291.939 59.0005C292.443 60.2965 292.695 61.8205 292.695 63.5725C292.695 65.5645 292.383 67.3285 291.759 68.8645C291.135 70.4005 290.271 71.6005 289.167 72.4645C288.087 73.3285 286.839 73.7605 285.423 73.7605C284.703 73.7605 284.067 73.6285 283.515 73.3645C283.083 73.1725 282.867 73.3045 282.867 73.7605V78.4045C282.867 78.9085 282.939 79.2445 283.083 79.4125C283.251 79.6045 283.587 79.7365 284.091 79.8085L285.423 79.9885C285.687 80.0365 285.819 80.1685 285.819 80.3845C285.819 80.6725 285.639 80.8165 285.279 80.8165H278.763ZM285.531 72.8605C286.875 72.8605 287.955 72.0685 288.771 70.4845C289.611 68.9005 290.031 66.7645 290.031 64.0765C290.031 61.6045 289.671 59.7205 288.951 58.4245C288.231 57.1285 287.211 56.4805 285.891 56.4805C285.075 56.4805 284.367 56.8165 283.767 57.4885C283.167 58.1605 282.867 59.0965 282.867 60.2965V69.3685C282.867 70.4485 283.107 71.3005 283.587 71.9245C284.091 72.5485 284.739 72.8605 285.531 72.8605ZM300.699 73.7605C299.547 73.7605 298.515 73.3765 297.603 72.6085C296.691 71.8405 295.959 70.7605 295.407 69.3685C294.879 67.9525 294.615 66.3205 294.615 64.4725C294.615 62.5765 294.891 60.9085 295.443 59.4685C295.995 58.0285 296.751 56.9005 297.711 56.0845C298.671 55.2685 299.739 54.8605 300.915 54.8605C302.331 54.8605 303.471 55.4485 304.335 56.6245C305.223 57.7765 305.667 59.6605 305.667 62.2765C305.667 63.0685 305.367 63.4645 304.767 63.4645H297.927C297.447 63.4645 297.207 63.7405 297.207 64.2925C297.207 66.8365 297.579 68.7445 298.323 70.0165C299.067 71.2885 300.015 71.9245 301.167 71.9245C302.079 71.9245 302.823 71.6005 303.399 70.9525C303.975 70.3045 304.443 69.2125 304.803 67.6765C304.875 67.4125 305.031 67.2805 305.271 67.2805C305.559 67.2805 305.667 67.5205 305.595 68.0005C305.211 70.1365 304.599 71.6365 303.759 72.5005C302.919 73.3405 301.899 73.7605 300.699 73.7605ZM297.819 62.5645H301.455C302.607 62.5645 303.183 61.9645 303.183 60.7645C303.183 59.2045 302.991 57.9805 302.607 57.0925C302.223 56.2045 301.647 55.7605 300.879 55.7605C299.943 55.7605 299.151 56.3005 298.503 57.3805C297.879 58.4605 297.471 59.9965 297.279 61.9885C297.231 62.3725 297.411 62.5645 297.819 62.5645ZM312.128 57.3805C313.112 55.7005 314.3 54.8605 315.692 54.8605C316.484 54.8605 317.072 55.1005 317.456 55.5805C317.84 56.0365 318.032 56.5525 318.032 57.1285C318.032 57.5845 317.912 57.9565 317.672 58.2445C317.456 58.5325 317.108 58.6765 316.628 58.6765C316.244 58.6765 315.956 58.5925 315.764 58.4245C315.596 58.2325 315.452 58.0165 315.332 57.7765C315.236 57.5365 315.116 57.3325 314.972 57.1645C314.828 56.9725 314.588 56.8765 314.252 56.8765C313.82 56.8765 313.412 57.1405 313.028 57.6685C312.644 58.1725 312.32 58.8565 312.056 59.7205C311.816 60.5845 311.696 61.5685 311.696 62.6725V71.0245C311.696 71.5285 311.768 71.8885 311.912 72.1045C312.08 72.3205 312.416 72.4525 312.92 72.5005L313.892 72.6085C314.156 72.6565 314.288 72.7885 314.288 73.0045C314.288 73.2925 314.108 73.4365 313.748 73.4365H307.664C307.304 73.4365 307.124 73.3045 307.124 73.0405C307.124 72.8245 307.28 72.6805 307.592 72.6085L308.024 72.5365C308.528 72.4405 308.852 72.2965 308.996 72.1045C309.164 71.8885 309.248 71.5285 309.248 71.0245V58.9285C309.248 58.4965 309.176 58.2085 309.032 58.0645C308.912 57.8965 308.684 57.7885 308.348 57.7405L307.592 57.6325C307.28 57.6085 307.124 57.4765 307.124 57.2365C307.124 57.0445 307.316 56.9125 307.7 56.8405C308.444 56.7205 309.008 56.5285 309.392 56.2645C309.8 56.0005 310.22 55.6765 310.652 55.2925C310.868 55.0765 311.048 54.9685 311.192 54.9685C311.408 54.9685 311.516 55.1125 311.516 55.4005V57.3445C311.516 57.5125 311.588 57.6205 311.732 57.6685C311.876 57.6925 312.008 57.5965 312.128 57.3805ZM319.125 73.4365C318.765 73.4365 318.585 73.3045 318.585 73.0405C318.585 72.8245 318.741 72.6805 319.053 72.6085L319.485 72.5365C319.989 72.4405 320.313 72.2965 320.457 72.1045C320.625 71.8885 320.709 71.5285 320.709 71.0245V58.9285C320.709 58.4965 320.637 58.2085 320.493 58.0645C320.373 57.8965 320.145 57.7885 319.809 57.7405L319.053 57.6325C318.741 57.6085 318.585 57.4765 318.585 57.2365C318.585 57.0445 318.777 56.9125 319.161 56.8405C319.905 56.7205 320.469 56.5285 320.853 56.2645C321.261 56.0005 321.681 55.6765 322.113 55.2925C322.329 55.0765 322.509 54.9685 322.653 54.9685C322.869 54.9685 322.977 55.1125 322.977 55.4005V57.0205C322.977 57.1885 323.049 57.3205 323.193 57.4165C323.337 57.4885 323.493 57.4405 323.661 57.2725C324.645 56.3365 325.497 55.7005 326.217 55.3645C326.961 55.0285 327.705 54.8605 328.449 54.8605C329.145 54.8605 329.757 55.0525 330.285 55.4365C330.837 55.7965 331.245 56.3485 331.509 57.0925C331.581 57.2845 331.701 57.4045 331.869 57.4525C332.061 57.4765 332.241 57.4045 332.409 57.2365C333.393 56.3245 334.245 55.7005 334.965 55.3645C335.685 55.0285 336.417 54.8605 337.161 54.8605C338.169 54.8605 338.985 55.2445 339.609 56.0125C340.257 56.7565 340.581 57.8605 340.581 59.3245V71.0245C340.581 71.5285 340.653 71.8885 340.797 72.1045C340.965 72.2965 341.301 72.4285 341.805 72.5005L342.597 72.6085C342.861 72.6565 342.993 72.8005 342.993 73.0405C342.993 73.3045 342.849 73.4365 342.561 73.4365H336.405C336.069 73.4365 335.901 73.3045 335.901 73.0405C335.901 72.8005 336.033 72.6565 336.297 72.6085L336.801 72.5365C337.353 72.4645 337.713 72.3205 337.881 72.1045C338.049 71.8885 338.133 71.5285 338.133 71.0245V59.7205C338.133 58.5445 337.917 57.7165 337.485 57.2365C337.077 56.7565 336.513 56.5165 335.793 56.5165C335.073 56.5165 334.413 56.7445 333.813 57.2005C333.237 57.6325 332.769 58.2205 332.409 58.9645C332.049 59.6845 331.869 60.4885 331.869 61.3765V71.0245C331.869 71.5285 331.953 71.8885 332.121 72.1045C332.289 72.2965 332.637 72.4285 333.165 72.5005L333.957 72.6085C334.221 72.6565 334.353 72.8005 334.353 73.0405C334.353 73.3045 334.209 73.4365 333.921 73.4365H327.801C327.465 73.4365 327.297 73.3045 327.297 73.0405C327.297 72.8005 327.429 72.6565 327.693 72.6085L328.197 72.5365C328.701 72.4645 329.025 72.3205 329.169 72.1045C329.337 71.8885 329.421 71.5285 329.421 71.0245V59.7205C329.421 58.5445 329.205 57.7165 328.773 57.2365C328.365 56.7565 327.801 56.5165 327.081 56.5165C326.361 56.5165 325.701 56.7445 325.101 57.2005C324.525 57.6325 324.057 58.2205 323.697 58.9645C323.337 59.6845 323.157 60.4885 323.157 61.3765V71.0245C323.157 71.5285 323.229 71.8885 323.373 72.1045C323.541 72.3205 323.877 72.4525 324.381 72.5005L325.353 72.6085C325.617 72.6565 325.749 72.7885 325.749 73.0045C325.749 73.2925 325.569 73.4365 325.209 73.4365H319.125ZM347.713 73.7605C346.705 73.7605 345.877 73.4485 345.229 72.8245C344.581 72.1765 344.257 71.3245 344.257 70.2685C344.257 69.2365 344.581 68.2645 345.229 67.3525C345.877 66.4165 346.765 65.5765 347.893 64.8325C349.021 64.0885 350.305 63.4885 351.745 63.0325C352.057 62.9365 352.213 62.7325 352.213 62.4205V59.1445C352.213 57.9925 352.033 57.1765 351.673 56.6965C351.313 56.1925 350.821 55.9405 350.197 55.9405C349.597 55.9405 349.045 56.2165 348.541 56.7685C348.061 57.2965 347.713 58.1965 347.497 59.4685C347.377 60.2365 347.113 60.8005 346.705 61.1605C346.321 61.4965 345.925 61.6645 345.517 61.6645C344.845 61.6645 344.509 61.3285 344.509 60.6565C344.509 59.9605 344.701 59.2765 345.085 58.6045C345.493 57.9085 346.021 57.2845 346.669 56.7325C347.317 56.1565 348.025 55.7005 348.793 55.3645C349.561 55.0285 350.329 54.8605 351.097 54.8605C353.473 54.8605 354.661 56.2405 354.661 59.0005V70.0165C354.661 71.0245 354.913 71.5285 355.417 71.5285C355.729 71.5285 356.017 71.3245 356.281 70.9165C356.545 70.4845 356.677 69.7645 356.677 68.7565C356.677 68.3725 356.833 68.1805 357.145 68.1805C357.433 68.1805 357.577 68.3845 357.577 68.7925C357.577 70.5445 357.265 71.8165 356.641 72.6085C356.041 73.3765 355.357 73.7605 354.589 73.7605C354.013 73.7605 353.557 73.5325 353.221 73.0765C352.885 72.5965 352.657 72.0325 352.537 71.3845C352.513 71.1445 352.405 71.0245 352.213 71.0245C352.045 71.0005 351.877 71.1085 351.709 71.3485C351.133 72.1405 350.545 72.7405 349.945 73.1485C349.345 73.5565 348.601 73.7605 347.713 73.7605ZM348.685 72.1045C349.309 72.1045 349.885 71.8885 350.413 71.4565C350.941 71.0005 351.373 70.4005 351.709 69.6565C352.045 68.9125 352.213 68.0725 352.213 67.1365V64.5085C352.213 64.0525 351.961 63.9205 351.457 64.1125C349.993 64.6405 348.853 65.3725 348.037 66.3085C347.245 67.2205 346.849 68.3245 346.849 69.6205C346.849 71.2765 347.461 72.1045 348.685 72.1045ZM363.316 57.3805C364.299 55.7005 365.488 54.8605 366.88 54.8605C367.672 54.8605 368.26 55.1005 368.644 55.5805C369.028 56.0365 369.22 56.5525 369.22 57.1285C369.22 57.5845 369.1 57.9565 368.86 58.2445C368.644 58.5325 368.296 58.6765 367.816 58.6765C367.432 58.6765 367.144 58.5925 366.952 58.4245C366.784 58.2325 366.64 58.0165 366.52 57.7765C366.424 57.5365 366.303 57.3325 366.16 57.1645C366.016 56.9725 365.776 56.8765 365.44 56.8765C365.007 56.8765 364.599 57.1405 364.215 57.6685C363.831 58.1725 363.507 58.8565 363.243 59.7205C363.003 60.5845 362.883 61.5685 362.883 62.6725V71.0245C362.883 71.5285 362.955 71.8885 363.099 72.1045C363.267 72.3205 363.603 72.4525 364.108 72.5005L365.079 72.6085C365.344 72.6565 365.476 72.7885 365.476 73.0045C365.476 73.2925 365.296 73.4365 364.936 73.4365H358.851C358.491 73.4365 358.311 73.3045 358.311 73.0405C358.311 72.8245 358.467 72.6805 358.779 72.6085L359.211 72.5365C359.715 72.4405 360.039 72.2965 360.183 72.1045C360.351 71.8885 360.435 71.5285 360.435 71.0245V58.9285C360.435 58.4965 360.363 58.2085 360.219 58.0645C360.099 57.8965 359.871 57.7885 359.535 57.7405L358.779 57.6325C358.467 57.6085 358.311 57.4765 358.311 57.2365C358.311 57.0445 358.503 56.9125 358.887 56.8405C359.631 56.7205 360.195 56.5285 360.579 56.2645C360.987 56.0005 361.407 55.6765 361.839 55.2925C362.055 55.0765 362.235 54.9685 362.379 54.9685C362.595 54.9685 362.703 55.1125 362.703 55.4005V57.3445C362.703 57.5125 362.775 57.6205 362.919 57.6685C363.063 57.6925 363.195 57.5965 363.316 57.3805ZM374.524 73.7605C373.684 73.7605 372.988 73.4725 372.436 72.8965C371.908 72.2965 371.644 71.3245 371.644 69.9805V56.5165C371.644 56.2285 371.5 56.0845 371.212 56.0845H370.168C369.784 56.0845 369.592 55.9405 369.592 55.6525C369.592 55.4605 369.7 55.2925 369.916 55.1485C370.708 54.5965 371.344 54.0085 371.824 53.3845C372.304 52.7365 372.724 51.8605 373.084 50.7565C373.252 50.2525 373.456 50.0005 373.696 50.0005C373.96 50.0005 374.092 50.1925 374.092 50.5765V54.5725C374.092 54.9085 374.26 55.0765 374.596 55.0765H376.936C377.32 55.0765 377.512 55.2445 377.512 55.5805C377.512 55.9165 377.32 56.0845 376.936 56.0845H374.596C374.26 56.0845 374.092 56.2525 374.092 56.5885V70.0165C374.092 70.5445 374.176 70.9645 374.344 71.2765C374.512 71.5645 374.824 71.7085 375.28 71.7085C375.784 71.7085 376.192 71.4565 376.504 70.9525C376.84 70.4485 377.056 69.6325 377.152 68.5045C377.2 68.1685 377.356 68.0005 377.62 68.0005C377.908 68.0005 378.052 68.1805 378.052 68.5405C377.98 70.3885 377.596 71.7205 376.9 72.5365C376.228 73.3525 375.436 73.7605 374.524 73.7605ZM385.89 73.4365C385.53 73.4365 385.35 73.3045 385.35 73.0405C385.35 72.8245 385.506 72.6805 385.818 72.6085L386.646 72.4645C387.15 72.3685 387.474 72.2365 387.618 72.0685C387.786 71.9005 387.87 71.5645 387.87 71.0605V49.8925C387.87 49.3885 387.786 49.0525 387.618 48.8845C387.474 48.7165 387.15 48.5845 386.646 48.4885L385.818 48.3445C385.506 48.2725 385.35 48.1285 385.35 47.9125C385.35 47.6485 385.53 47.5165 385.89 47.5165H392.478C392.838 47.5165 393.018 47.6605 393.018 47.9485C393.018 48.1645 392.886 48.2965 392.622 48.3445L391.65 48.4885C391.146 48.5605 390.81 48.6925 390.642 48.8845C390.498 49.0765 390.426 49.4245 390.426 49.9285V70.0885C390.426 70.9525 390.666 71.5765 391.146 71.9605C391.65 72.3445 392.274 72.5365 393.018 72.5365C393.57 72.5365 394.134 72.4285 394.71 72.2125C395.31 71.9725 395.85 71.5405 396.33 70.9165C396.81 70.2685 397.17 69.3325 397.41 68.1085L397.878 65.6965C397.95 65.3845 398.13 65.2285 398.418 65.2285C398.754 65.2285 398.898 65.4325 398.85 65.8405L398.418 72.6085C398.37 73.1605 398.07 73.4365 397.518 73.4365H385.89ZM406.845 73.7605C405.621 73.7605 404.517 73.3525 403.533 72.5365C402.573 71.6965 401.805 70.5565 401.229 69.1165C400.653 67.6765 400.365 66.0685 400.365 64.2925C400.365 62.5165 400.653 60.9205 401.229 59.5045C401.805 58.0885 402.585 56.9605 403.569 56.1205C404.553 55.2805 405.645 54.8605 406.845 54.8605C408.069 54.8605 409.161 55.2805 410.121 56.1205C411.105 56.9605 411.885 58.0885 412.461 59.5045C413.037 60.9205 413.325 62.5165 413.325 64.2925C413.325 66.0685 413.037 67.6765 412.461 69.1165C411.909 70.5565 411.141 71.6965 410.157 72.5365C409.173 73.3525 408.069 73.7605 406.845 73.7605ZM406.845 72.8605C409.341 72.8605 410.589 70.0045 410.589 64.2925C410.589 58.6045 409.341 55.7605 406.845 55.7605C404.349 55.7605 403.101 58.6045 403.101 64.2925C403.101 70.0045 404.349 72.8605 406.845 72.8605ZM420.64 81.1765C418.816 81.1765 417.376 80.8045 416.32 80.0605C415.264 79.3405 414.736 78.4645 414.736 77.4325C414.736 77.0005 414.796 76.6045 414.916 76.2445C415.036 75.9085 415.288 75.5125 415.672 75.0565C416.08 74.6005 416.692 74.0125 417.508 73.2925C417.796 73.0285 417.94 72.7885 417.94 72.5725C417.94 72.3325 417.796 72.1525 417.508 72.0325C416.644 71.6725 416.128 71.2165 415.96 70.6645C415.792 70.0885 415.996 69.5605 416.572 69.0805L419.164 66.8485C419.452 66.6085 419.44 66.4045 419.128 66.2365C418.144 65.7565 417.364 65.0125 416.788 64.0045C416.212 62.9965 415.924 61.9165 415.924 60.7645C415.924 59.6605 416.164 58.6645 416.644 57.7765C417.124 56.8885 417.772 56.1805 418.588 55.6525C419.404 55.1245 420.316 54.8605 421.324 54.8605C421.9 54.8605 422.452 54.9565 422.98 55.1485C423.316 55.2685 423.52 55.1605 423.592 54.8245C423.808 53.9125 424.204 53.2045 424.78 52.7005C425.38 52.1725 425.968 51.9085 426.544 51.9085C427.096 51.9085 427.54 52.0765 427.876 52.4125C428.236 52.7245 428.416 53.1205 428.416 53.6005C428.416 54.0085 428.296 54.3325 428.056 54.5725C427.816 54.8125 427.516 54.9325 427.156 54.9325C426.844 54.9325 426.616 54.8725 426.472 54.7525C426.328 54.6325 426.196 54.5125 426.076 54.3925C425.956 54.2725 425.764 54.2125 425.5 54.2125C424.924 54.2125 424.564 54.5245 424.42 55.1485C424.348 55.3885 424.348 55.5925 424.42 55.7605C424.516 55.9285 424.648 56.0965 424.816 56.2645C425.392 56.8165 425.836 57.4885 426.148 58.2805C426.484 59.0725 426.652 59.9485 426.652 60.9085C426.652 62.0605 426.412 63.0925 425.932 64.0045C425.476 64.9165 424.84 65.6365 424.024 66.1645C423.232 66.6925 422.332 66.9565 421.324 66.9565C420.892 66.9565 420.52 67.0525 420.208 67.2445C419.896 67.4125 419.584 67.6645 419.272 68.0005L418.66 68.6845C418.348 69.0685 418.252 69.4405 418.372 69.8005C418.516 70.1365 418.852 70.3045 419.38 70.3045H422.476C424.204 70.3045 425.572 70.7365 426.58 71.6005C427.588 72.4405 428.092 73.6045 428.092 75.0925C428.092 76.2685 427.756 77.3125 427.084 78.2245C426.412 79.1365 425.512 79.8565 424.384 80.3845C423.28 80.9125 422.032 81.1765 420.64 81.1765ZM421.288 66.0565C422.152 66.0565 422.836 65.5885 423.34 64.6525C423.844 63.7165 424.096 62.4445 424.096 60.8365C424.096 59.2765 423.832 58.0285 423.304 57.0925C422.8 56.1325 422.128 55.6525 421.288 55.6525C420.448 55.6525 419.764 56.1325 419.236 57.0925C418.732 58.0285 418.48 59.2765 418.48 60.8365C418.48 62.4445 418.732 63.7165 419.236 64.6525C419.74 65.5885 420.424 66.0565 421.288 66.0565ZM421.072 80.3845C421.936 80.3845 422.728 80.1925 423.448 79.8085C424.168 79.4245 424.732 78.8845 425.14 78.1885C425.572 77.5165 425.788 76.7485 425.788 75.8845C425.788 74.8045 425.464 73.9765 424.816 73.4005C424.192 72.8005 423.304 72.5005 422.152 72.5005H421.324C420.58 72.5005 420.016 72.5725 419.632 72.7165C419.272 72.8605 418.924 73.1125 418.588 73.4725C417.844 74.2645 417.376 74.9005 417.184 75.3805C416.992 75.8605 416.896 76.3525 416.896 76.8565C416.896 77.9125 417.256 78.7645 417.976 79.4125C418.72 80.0605 419.752 80.3845 421.072 80.3845ZM432.821 51.6565C432.317 51.6565 431.885 51.4765 431.525 51.1165C431.189 50.7565 431.021 50.3005 431.021 49.7485C431.021 49.1965 431.189 48.7525 431.525 48.4165C431.885 48.0565 432.317 47.8765 432.821 47.8765C433.325 47.8765 433.745 48.0565 434.081 48.4165C434.417 48.7525 434.585 49.1965 434.585 49.7485C434.585 50.3005 434.417 50.7565 434.081 51.1165C433.745 51.4765 433.325 51.6565 432.821 51.6565ZM429.797 73.4365C429.437 73.4365 429.257 73.3045 429.257 73.0405C429.257 72.8245 429.413 72.6805 429.725 72.6085L430.157 72.5365C430.757 72.4405 431.141 72.2965 431.309 72.1045C431.477 71.8885 431.561 71.5285 431.561 71.0245V58.9285C431.561 58.4965 431.489 58.2085 431.345 58.0645C431.225 57.8965 430.997 57.7885 430.661 57.7405L429.905 57.6325C429.593 57.6085 429.437 57.4765 429.437 57.2365C429.437 57.0445 429.629 56.9125 430.013 56.8405C430.757 56.7205 431.357 56.5285 431.813 56.2645C432.269 56.0005 432.713 55.6765 433.145 55.2925C433.361 55.0765 433.541 54.9685 433.685 54.9685C433.901 54.9685 434.009 55.1125 434.009 55.4005V71.0245C434.009 71.5285 434.081 71.8885 434.225 72.1045C434.369 72.3205 434.645 72.4525 435.053 72.5005L435.953 72.6085C436.217 72.6565 436.349 72.7885 436.349 73.0045C436.349 73.2925 436.169 73.4365 435.809 73.4365H429.797ZM441.448 73.7605C440.896 73.7605 440.308 73.6885 439.684 73.5445C439.06 73.4245 438.556 73.2685 438.172 73.0765C437.956 72.9565 437.848 72.7525 437.848 72.4645L437.74 68.4325C437.74 68.0245 437.896 67.8205 438.208 67.8205C438.472 67.8205 438.652 68.0125 438.748 68.3965C439.156 70.1005 439.648 71.2645 440.224 71.8885C440.824 72.5125 441.544 72.8245 442.384 72.8245C443.08 72.8245 443.656 72.5605 444.112 72.0325C444.568 71.4805 444.796 70.7245 444.796 69.7645C444.796 68.8045 444.532 67.9525 444.004 67.2085C443.476 66.4645 442.588 65.6485 441.34 64.7605C440.092 63.9205 439.18 63.0805 438.604 62.2405C438.028 61.3765 437.74 60.4405 437.74 59.4325C437.74 58.0645 438.22 56.9605 439.18 56.1205C440.14 55.2805 441.412 54.8605 442.996 54.8605C443.476 54.8605 443.944 54.9205 444.4 55.0405C444.856 55.1365 445.264 55.3045 445.624 55.5445C445.84 55.6885 445.948 55.8805 445.948 56.1205L446.02 60.0805C446.02 60.4405 445.876 60.6205 445.588 60.6205C445.42 60.6205 445.3 60.5725 445.228 60.4765C445.156 60.3565 445.096 60.2125 445.048 60.0445C444.568 58.4845 444.088 57.4045 443.608 56.8045C443.128 56.1805 442.54 55.8685 441.844 55.8685C441.22 55.8685 440.704 56.0845 440.296 56.5165C439.888 56.9485 439.684 57.4885 439.684 58.1365C439.684 58.9765 439.936 59.7085 440.44 60.3325C440.944 60.9565 441.856 61.7245 443.176 62.6365C444.376 63.5005 445.276 64.4365 445.876 65.4445C446.5 66.4285 446.812 67.5085 446.812 68.6845C446.812 70.2205 446.32 71.4565 445.336 72.3925C444.352 73.3045 443.056 73.7605 441.448 73.7605ZM453.099 73.7605C452.259 73.7605 451.563 73.4725 451.011 72.8965C450.483 72.2965 450.219 71.3245 450.219 69.9805V56.5165C450.219 56.2285 450.075 56.0845 449.787 56.0845H448.743C448.359 56.0845 448.167 55.9405 448.167 55.6525C448.167 55.4605 448.275 55.2925 448.491 55.1485C449.283 54.5965 449.919 54.0085 450.399 53.3845C450.879 52.7365 451.299 51.8605 451.659 50.7565C451.827 50.2525 452.031 50.0005 452.271 50.0005C452.535 50.0005 452.667 50.1925 452.667 50.5765V54.5725C452.667 54.9085 452.835 55.0765 453.171 55.0765H455.511C455.895 55.0765 456.087 55.2445 456.087 55.5805C456.087 55.9165 455.895 56.0845 455.511 56.0845H453.171C452.835 56.0845 452.667 56.2525 452.667 56.5885V70.0165C452.667 70.5445 452.751 70.9645 452.919 71.2765C453.087 71.5645 453.399 71.7085 453.855 71.7085C454.359 71.7085 454.767 71.4565 455.079 70.9525C455.415 70.4485 455.631 69.6325 455.727 68.5045C455.775 68.1685 455.931 68.0005 456.195 68.0005C456.483 68.0005 456.627 68.1805 456.627 68.5405C456.555 70.3885 456.171 71.7205 455.475 72.5365C454.803 73.3525 454.011 73.7605 453.099 73.7605ZM461.227 51.6565C460.723 51.6565 460.291 51.4765 459.931 51.1165C459.595 50.7565 459.427 50.3005 459.427 49.7485C459.427 49.1965 459.595 48.7525 459.931 48.4165C460.291 48.0565 460.723 47.8765 461.227 47.8765C461.731 47.8765 462.151 48.0565 462.487 48.4165C462.823 48.7525 462.991 49.1965 462.991 49.7485C462.991 50.3005 462.823 50.7565 462.487 51.1165C462.151 51.4765 461.731 51.6565 461.227 51.6565ZM458.203 73.4365C457.843 73.4365 457.663 73.3045 457.663 73.0405C457.663 72.8245 457.819 72.6805 458.131 72.6085L458.563 72.5365C459.163 72.4405 459.547 72.2965 459.715 72.1045C459.883 71.8885 459.967 71.5285 459.967 71.0245V58.9285C459.967 58.4965 459.895 58.2085 459.751 58.0645C459.631 57.8965 459.403 57.7885 459.067 57.7405L458.311 57.6325C457.999 57.6085 457.843 57.4765 457.843 57.2365C457.843 57.0445 458.035 56.9125 458.419 56.8405C459.163 56.7205 459.763 56.5285 460.219 56.2645C460.675 56.0005 461.119 55.6765 461.551 55.2925C461.767 55.0765 461.947 54.9685 462.091 54.9685C462.307 54.9685 462.415 55.1125 462.415 55.4005V71.0245C462.415 71.5285 462.487 71.8885 462.631 72.1045C462.775 72.3205 463.051 72.4525 463.459 72.5005L464.359 72.6085C464.623 72.6565 464.755 72.7885 464.755 73.0045C464.755 73.2925 464.575 73.4365 464.215 73.4365H458.203ZM471.619 73.7605C470.563 73.7605 469.603 73.4125 468.739 72.7165C467.899 71.9965 467.227 70.9765 466.723 69.6565C466.219 68.3365 465.967 66.7645 465.967 64.9405C465.967 62.9005 466.267 61.1245 466.867 59.6125C467.491 58.1005 468.331 56.9365 469.387 56.1205C470.443 55.2805 471.619 54.8605 472.915 54.8605C474.019 54.8605 474.883 55.0765 475.507 55.5085C475.747 55.6765 475.867 55.9405 475.867 56.3005L475.939 60.6925C475.939 61.0525 475.795 61.2325 475.507 61.2325C475.243 61.2325 475.075 61.0765 475.003 60.7645C474.667 59.4445 474.343 58.4245 474.031 57.7045C473.719 56.9845 473.395 56.4925 473.059 56.2285C472.723 55.9405 472.351 55.7965 471.943 55.7965C471.463 55.7965 470.959 56.0725 470.431 56.6245C469.927 57.1765 469.495 58.0765 469.135 59.3245C468.799 60.5485 468.631 62.1685 468.631 64.1845C468.631 66.7525 468.955 68.6845 469.603 69.9805C470.275 71.2765 471.139 71.9245 472.195 71.9245C473.035 71.9245 473.731 71.5765 474.283 70.8805C474.859 70.1845 475.351 68.9245 475.759 67.1005C475.831 66.8365 475.975 66.7045 476.191 66.7045C476.479 66.7045 476.587 66.9445 476.515 67.4245C476.251 69.1045 475.879 70.4125 475.399 71.3485C474.943 72.2605 474.391 72.8965 473.743 73.2565C473.119 73.5925 472.411 73.7605 471.619 73.7605ZM482.054 73.7605C481.502 73.7605 480.914 73.6885 480.29 73.5445C479.666 73.4245 479.162 73.2685 478.778 73.0765C478.562 72.9565 478.454 72.7525 478.454 72.4645L478.346 68.4325C478.346 68.0245 478.502 67.8205 478.814 67.8205C479.078 67.8205 479.258 68.0125 479.354 68.3965C479.762 70.1005 480.254 71.2645 480.83 71.8885C481.43 72.5125 482.15 72.8245 482.99 72.8245C483.686 72.8245 484.262 72.5605 484.718 72.0325C485.174 71.4805 485.402 70.7245 485.402 69.7645C485.402 68.8045 485.138 67.9525 484.61 67.2085C484.082 66.4645 483.194 65.6485 481.946 64.7605C480.698 63.9205 479.786 63.0805 479.21 62.2405C478.634 61.3765 478.346 60.4405 478.346 59.4325C478.346 58.0645 478.826 56.9605 479.786 56.1205C480.746 55.2805 482.018 54.8605 483.602 54.8605C484.082 54.8605 484.55 54.9205 485.006 55.0405C485.462 55.1365 485.87 55.3045 486.23 55.5445C486.446 55.6885 486.554 55.8805 486.554 56.1205L486.626 60.0805C486.626 60.4405 486.482 60.6205 486.194 60.6205C486.026 60.6205 485.906 60.5725 485.834 60.4765C485.762 60.3565 485.702 60.2125 485.654 60.0445C485.174 58.4845 484.694 57.4045 484.214 56.8045C483.734 56.1805 483.146 55.8685 482.45 55.8685C481.826 55.8685 481.31 56.0845 480.902 56.5165C480.494 56.9485 480.29 57.4885 480.29 58.1365C480.29 58.9765 480.542 59.7085 481.046 60.3325C481.55 60.9565 482.462 61.7245 483.782 62.6365C484.982 63.5005 485.882 64.4365 486.482 65.4445C487.106 66.4285 487.418 67.5085 487.418 68.6845C487.418 70.2205 486.926 71.4565 485.942 72.3925C484.958 73.3045 483.662 73.7605 482.054 73.7605Z" fill="black"/>
<path d="M119.513 17.1672C119.513 17.1672 119.674 17.1589 119.962 17.1619C120.106 17.163 120.283 17.165 120.486 17.1751C120.71 17.2 120.965 17.2401 121.254 17.293C121.556 17.3443 121.846 17.4082 122.172 17.4878C122.502 17.5637 122.845 17.6638 123.206 17.7849C123.936 18.02 124.718 18.3511 125.534 18.7766C125.743 18.8793 125.936 19.0013 126.144 19.1192C126.349 19.2391 126.559 19.3627 126.761 19.4983C127.165 19.7693 127.587 20.0555 127.983 20.3819C128.408 20.7168 128.811 21.0721 129.191 21.4461C129.275 21.3853 129.359 21.3238 129.445 21.2642C129.591 21.1658 129.739 21.0696 129.888 20.9754C129.883 20.8419 129.878 20.7084 129.873 20.5735C129.878 20.3943 129.866 20.2155 129.861 20.0357C129.855 19.8559 129.853 19.6754 129.836 19.4957C129.821 19.3161 129.81 19.1354 129.807 18.9531L129.767 18.4097C129.757 18.2278 129.733 18.0483 129.715 17.8677C129.699 17.6866 129.693 17.5035 129.669 17.324L129.544 16.2479C129.457 15.5347 129.351 14.8348 129.243 14.1586C129.186 13.8214 129.135 13.4883 129.073 13.1666C129.018 12.8416 128.959 12.5268 128.898 12.2226L128.815 11.7707C128.788 11.6225 128.751 11.4819 128.726 11.3384C128.673 11.0534 128.617 10.7826 128.562 10.526C128.511 10.2691 128.456 10.0241 128.415 9.79943C128.371 9.57868 128.327 9.37456 128.294 9.18359C128.275 9.08818 128.262 8.99958 128.241 8.91188L128.185 8.65892L128.099 8.25914C128.074 8.15163 128.062 8.06454 128.051 8.00754L128.015 7.79631C127.981 7.59543 128.014 7.39019 128.112 7.20591C128.21 7.02162 128.368 6.86633 128.565 6.7592C128.763 6.65206 128.993 6.59775 129.225 6.60296C129.458 6.60818 129.684 6.67269 129.875 6.78854L130.184 6.97558L130.55 7.20344L130.781 7.34829C130.862 7.40227 130.95 7.46759 131.042 7.53276L131.657 7.97639C131.882 8.13818 132.099 8.32037 132.346 8.51406C132.833 8.90356 133.376 9.35732 133.922 9.8891C134.528 10.4569 135.1 11.0527 135.634 11.6737C135.928 12.0165 136.215 12.3635 136.496 12.7146C136.788 13.0856 137.066 13.4655 137.327 13.8535C137.48 14.0753 137.629 14.2987 137.776 14.5236C137.815 14.3913 137.856 14.2593 137.9 14.1282C138.03 13.6333 138.198 13.1471 138.322 12.6575L138.534 11.9305C138.596 11.6884 138.668 11.4483 138.734 11.2097C138.876 10.7334 138.99 10.2612 139.128 9.79974C139.255 9.33781 139.377 8.88451 139.505 8.44315L139.681 7.78981C139.742 7.5751 139.809 7.36326 139.861 7.15566C139.972 6.74016 140.092 6.33796 140.2 5.9533C140.305 5.56895 140.414 5.20062 140.517 4.85225C140.608 4.52358 140.705 4.196 140.806 3.86958L141.065 3.03298C141.235 2.52812 141.356 2.09417 141.456 1.81006C141.555 1.52232 141.616 1.36764 141.616 1.36764C141.661 1.25659 141.739 1.15808 141.842 1.08264C141.945 1.00719 142.07 0.957637 142.203 0.939259C142.336 0.92088 142.473 0.934369 142.598 0.978285C142.723 1.0222 142.832 1.0949 142.913 1.18862C142.913 1.18862 143.026 1.31925 143.222 1.56632C143.415 1.81762 143.696 2.16599 144.008 2.6645C144.159 2.91036 144.342 3.18781 144.512 3.4884C144.696 3.81172 144.874 4.13776 145.045 4.46638C145.224 4.81883 145.399 5.19744 145.581 5.59994C145.761 6.00259 145.925 6.42989 146.1 6.87911C146.266 7.32864 146.419 7.80084 146.575 8.2927C146.714 8.78532 146.861 9.29775 146.982 9.82862C147.043 10.0978 147.101 10.3677 147.154 10.6382C147.214 10.9151 147.263 11.1934 147.304 11.4729C147.346 11.7552 147.395 12.0416 147.433 12.331L147.526 13.2112C147.585 13.8034 147.607 14.4116 147.627 15.0271C147.633 15.3356 147.629 15.647 147.622 15.9597C147.619 16.1968 147.612 16.4359 147.6 16.6758C147.85 16.6819 148.099 16.6876 148.346 16.6989C148.997 16.7159 149.633 16.7723 150.249 16.819C150.865 16.8757 151.462 16.9469 152.037 17.0216C152.324 17.0624 152.606 17.1066 152.882 17.1521C153.158 17.1979 153.428 17.2365 153.692 17.2912C154.22 17.3943 154.723 17.4955 155.199 17.6075C155.648 17.7158 156.096 17.8307 156.541 17.9523C156.932 18.0664 157.321 18.1851 157.707 18.3083C158.066 18.4273 158.4 18.5503 158.695 18.6541C158.991 18.7639 159.254 18.8664 159.469 18.9603L160.024 19.2092C160.325 19.3501 160.485 19.4319 160.485 19.4319C160.603 19.4919 160.699 19.579 160.763 19.6837C160.827 19.7884 160.856 19.9066 160.848 20.025C160.84 20.1435 160.794 20.2576 160.716 20.3546C160.637 20.4517 160.53 20.5279 160.405 20.5749C160.405 20.5749 160.234 20.639 159.916 20.7468L159.33 20.9346C159.096 20.9997 158.842 21.0893 158.559 21.1804L157.628 21.4712C157.264 21.5849 156.899 21.6955 156.533 21.8031C156.145 21.9195 155.735 22.047 155.305 22.1704C154.876 22.2952 154.427 22.4369 153.963 22.5674L151.009 23.4439L150.227 23.6792C149.961 23.7548 149.697 23.8345 149.434 23.9184C149.168 24.0034 148.898 24.0785 148.628 24.1593C148.36 24.2464 148.09 24.3321 147.817 24.4134L147.432 24.5306C147.818 24.6234 148.201 24.7237 148.582 24.8315C149.594 25.109 150.542 25.4469 151.419 25.7832L152.06 26.0485C152.27 26.1358 152.476 26.2186 152.673 26.3162C153.07 26.5046 153.451 26.6789 153.807 26.8659C154.527 27.2192 155.155 27.5908 155.699 27.9281C155.97 28.1008 156.222 28.25 156.451 28.4102L157.081 28.8518L157.344 29.0399L157.554 29.2118L157.885 29.484C158.064 29.6326 158.157 29.7161 158.157 29.7161C158.318 29.8594 158.429 30.039 158.478 30.2346C158.528 30.4302 158.513 30.6339 158.436 30.8227C158.36 31.0114 158.224 31.1777 158.044 31.3026C157.865 31.4274 157.649 31.5059 157.421 31.5292L157.178 31.5538C157.11 31.56 157.008 31.5729 156.878 31.5815C156.748 31.5919 156.588 31.6042 156.402 31.6129L156.102 31.6287C156 31.6349 155.895 31.6451 155.783 31.6542C155.559 31.676 155.319 31.6893 155.061 31.7076C154.796 31.7312 154.51 31.7433 154.209 31.7638L153.261 31.8233C152.931 31.8419 152.589 31.8617 152.233 31.8884C151.881 31.9081 151.516 31.9332 151.142 31.9609L150.001 32.0411C149.225 32.1042 148.426 32.1641 147.615 32.2422C147.209 32.2812 146.802 32.3236 146.393 32.3587L145.778 32.4322C145.676 32.4439 145.574 32.4497 145.471 32.4603L145.164 32.496C144.475 32.5746 143.79 32.6683 143.111 32.7645C144.098 33.281 144.986 33.8541 145.752 34.4673C146.162 34.78 146.529 35.1189 146.877 35.4441C147.051 35.6063 147.212 35.7774 147.368 35.944C147.523 36.1133 147.68 36.2685 147.818 36.4404C148.381 37.109 148.834 37.7561 149.171 38.3677C149.344 38.6692 149.491 38.9574 149.609 39.2366C149.731 39.5119 149.832 39.7584 149.919 40.0153C150.007 40.2611 150.077 40.4793 150.127 40.6709C150.153 40.8218 150.174 40.9732 150.192 41.1251C150.223 41.3749 150.228 41.5155 150.228 41.5155C150.233 41.641 150.218 41.7664 150.183 41.8882C150.134 42.0552 150.048 42.2122 149.93 42.3502C149.811 42.4883 149.663 42.6046 149.493 42.6925C149.323 42.7805 149.135 42.8384 148.939 42.863C148.744 42.8875 148.544 42.8782 148.353 42.8356L148.352 42.8355C148.352 42.8355 148.196 42.8007 147.922 42.7216C147.756 42.6748 147.591 42.6243 147.427 42.5703C147.227 42.5296 147.028 42.4867 146.829 42.4416C146.622 42.3985 146.364 42.34 146.104 42.2763L145.701 42.1782C145.557 42.1472 145.413 42.1144 145.269 42.0801C144.687 41.9407 144.037 41.8035 143.365 41.6553L142.327 41.44C141.97 41.3743 141.617 41.2946 141.251 41.2311C140.528 41.0874 139.784 40.9634 139.047 40.8461C138.312 40.72 137.575 40.637 136.863 40.5485C136.148 40.4611 135.456 40.4123 134.79 40.376L134.541 40.3614C134.458 40.3552 134.375 40.3479 134.294 40.3506C134.132 40.3508 133.97 40.3435 133.808 40.3346C133.492 40.3444 133.169 40.3202 132.861 40.337C132.545 40.3299 132.244 40.3606 131.931 40.3624L131.471 40.3964C131.394 40.4031 131.315 40.4037 131.237 40.4081L131.008 40.4356C130.856 40.4568 130.696 40.4608 130.54 40.4787C130.386 40.5058 130.23 40.5279 130.074 40.5451C129.996 40.5556 129.915 40.5617 129.837 40.5755L129.603 40.619C129.447 40.6476 129.289 40.6759 129.126 40.6978C128.848 40.7637 128.56 40.821 128.273 40.8841C128.209 40.9302 128.143 40.9748 128.075 41.0153C127.694 41.2554 127.305 41.485 126.908 41.7039C126.543 41.8811 126.173 42.0488 125.797 42.2066L125.539 42.3143C125.454 42.3492 125.365 42.3748 125.28 42.4042C125.111 42.4617 124.946 42.5137 124.788 42.5621C124.5 42.6517 124.208 42.733 123.914 42.8058C123.673 42.8576 123.429 42.9027 123.185 42.9409C122.973 42.9772 122.789 43.0006 122.641 43.0183C122.344 43.0546 122.18 43.0624 122.18 43.0624C122.042 43.0685 121.904 43.0581 121.769 43.0313C121.478 42.9723 121.215 42.8363 121.016 42.6418C120.84 42.529 120.696 42.3831 120.593 42.215C120.491 42.0468 120.433 41.8607 120.424 41.6705C120.424 41.6705 120.418 41.5276 120.431 41.2666C120.438 41.1063 120.45 40.9463 120.467 40.7867C120.488 40.5705 120.516 40.355 120.552 40.1404C120.607 39.878 120.672 39.6172 120.747 39.3584C120.787 39.2163 120.83 39.0681 120.88 38.9157C120.905 38.8398 120.926 38.7595 120.958 38.6827L121.056 38.4485C121.2 38.1069 121.356 37.7693 121.524 37.4359C121.736 37.0702 121.961 36.7104 122.198 36.3569C122.239 36.2936 122.282 36.2319 122.329 36.172C122.373 35.9169 122.411 35.6618 122.46 35.4139C122.471 35.2729 122.485 35.1321 122.505 34.9919L122.532 34.7846C122.54 34.7158 122.539 34.645 122.544 34.5757C122.549 34.4385 122.559 34.3014 122.575 34.1648C122.581 34.0278 122.57 33.8882 122.58 33.7544L122.589 33.553C122.587 33.4848 122.58 33.416 122.58 33.3487L122.575 32.9462C122.547 32.6738 122.554 32.4096 122.516 32.1355C122.506 31.867 122.447 31.5886 122.428 31.3134C122.402 31.1731 122.379 31.0331 122.363 30.8923C122.359 30.8223 122.343 30.7512 122.327 30.6794L122.287 30.4644C122.182 29.8895 122.06 29.2935 121.892 28.6808C121.723 28.0715 121.558 27.4394 121.344 26.8127C121.14 26.1846 120.928 25.5502 120.695 24.9363C120.587 24.6239 120.463 24.3256 120.354 24.0215L120.009 23.1405C119.776 22.5713 119.557 22.0198 119.342 21.5282C119.289 21.405 119.238 21.283 119.189 21.1621L119.039 20.8218C118.948 20.6185 118.863 20.4138 118.781 20.2077C118.706 20.0268 118.637 19.8577 118.577 19.7012C118.487 19.5425 118.415 19.4009 118.357 19.2854C118.241 19.0554 118.186 18.9231 118.186 18.9231L118.183 18.9166C118.136 18.8001 118.108 18.6784 118.1 18.5551C118.088 18.383 118.115 18.2106 118.18 18.0477C118.244 17.8847 118.345 17.7345 118.476 17.6056C118.608 17.4767 118.767 17.3716 118.944 17.2964C119.122 17.2212 119.315 17.1773 119.513 17.1672Z" fill="#2BA52E"/>
<path d="M87.4521 71.4151L88.1541 72.0275C97.1708 79.8927 111.789 79.8927 120.806 72.0275L130.297 63.7489C139.313 55.8836 139.313 43.1317 130.297 35.2664L129.595 34.6541C120.578 26.7888 105.959 26.7888 96.9427 34.6541L87.4521 42.9327C78.4355 50.7978 78.4355 63.5499 87.4521 71.4151Z" fill="#FFD469"/>
<path d="M126.028 47.5297H129.977C130.06 47.5297 130.143 47.5154 130.22 47.4875C130.298 47.4596 130.368 47.4187 130.427 47.3672C130.486 47.3156 130.533 47.2544 130.565 47.187C130.597 47.1196 130.613 47.0474 130.613 46.9745V43.5302C130.613 43.4573 130.597 43.3851 130.565 43.3177C130.533 43.2504 130.486 43.1891 130.427 43.1376C130.368 43.086 130.298 43.0451 130.22 43.0172C130.143 42.9893 130.06 42.975 129.977 42.975H126.028C125.945 42.975 125.862 42.9893 125.785 43.0172C125.708 43.0451 125.637 43.086 125.578 43.1376C125.519 43.1891 125.472 43.2504 125.44 43.3177C125.408 43.3851 125.392 43.4573 125.392 43.5302V46.9745C125.392 47.0474 125.408 47.1196 125.44 47.187C125.472 47.2544 125.519 47.3156 125.578 47.3672C125.637 47.4187 125.708 47.4596 125.785 47.4875C125.862 47.5154 125.945 47.5297 126.028 47.5297ZM116.388 39.1203V35.676C116.388 35.6031 116.404 35.5309 116.436 35.4635C116.468 35.3961 116.515 35.3349 116.574 35.2834C116.633 35.2318 116.704 35.1909 116.781 35.163C116.858 35.1351 116.941 35.1208 117.024 35.1208H120.973C121.056 35.1208 121.139 35.1351 121.216 35.163C121.294 35.1909 121.364 35.2318 121.423 35.2834C121.482 35.3349 121.529 35.3961 121.561 35.4635C121.593 35.5309 121.609 35.6031 121.609 35.676V39.1203C121.609 39.1932 121.593 39.2654 121.561 39.3328C121.529 39.4002 121.482 39.4614 121.423 39.513C121.364 39.5645 121.294 39.6054 121.216 39.6333C121.139 39.6612 121.056 39.6755 120.973 39.6755H117.024C116.941 39.6755 116.858 39.6612 116.781 39.6333C116.704 39.6054 116.633 39.5645 116.574 39.513C116.515 39.4614 116.468 39.4002 116.436 39.3328C116.404 39.2654 116.388 39.1932 116.388 39.1203ZM119.803 67.5581V64.1139C119.803 64.0409 119.819 63.9687 119.851 63.9014C119.883 63.834 119.93 63.7728 119.989 63.7212C120.048 63.6696 120.118 63.6287 120.196 63.6008C120.273 63.573 120.356 63.5586 120.439 63.5587H124.388C124.471 63.5586 124.554 63.573 124.631 63.6008C124.709 63.6287 124.779 63.6696 124.838 63.7212C124.897 63.7728 124.944 63.834 124.976 63.9014C125.008 63.9687 125.024 64.0409 125.024 64.1139V67.5581C125.024 67.631 125.008 67.7032 124.976 67.7706C124.944 67.838 124.897 67.8992 124.838 67.9508C124.779 68.0024 124.709 68.0433 124.631 68.0711C124.554 68.099 124.471 68.1134 124.388 68.1133H120.439C120.356 68.1134 120.273 68.099 120.196 68.0711C120.118 68.0433 120.048 68.0024 119.989 67.9508C119.93 67.8992 119.883 67.838 119.851 67.7706C119.819 67.7032 119.803 67.631 119.803 67.5581ZM110.799 59.7041V56.2598C110.799 56.1869 110.815 56.1147 110.847 56.0473C110.879 55.9799 110.926 55.9187 110.985 55.8671C111.044 55.8156 111.114 55.7747 111.192 55.7468C111.269 55.7189 111.352 55.7046 111.435 55.7046H115.384C115.467 55.7046 115.55 55.7189 115.627 55.7468C115.705 55.7747 115.775 55.8156 115.834 55.8671C115.893 55.9187 115.94 55.9799 115.972 56.0473C116.004 56.1147 116.02 56.1869 116.02 56.2598V59.7041C116.02 59.777 116.004 59.8492 115.972 59.9166C115.94 59.984 115.893 60.0452 115.834 60.0967C115.775 60.1483 115.705 60.1892 115.627 60.2171C115.55 60.245 115.467 60.2593 115.384 60.2593H111.435C111.352 60.2593 111.269 60.245 111.192 60.2171C111.114 60.1892 111.044 60.1483 110.985 60.0967C110.926 60.0452 110.879 59.984 110.847 59.9166C110.815 59.8492 110.799 59.777 110.799 59.7041ZM101.795 51.8498V48.4056C101.795 48.3327 101.811 48.2605 101.843 48.1931C101.875 48.1257 101.922 48.0645 101.981 48.0129C102.04 47.9614 102.11 47.9205 102.188 47.8926C102.265 47.8647 102.348 47.8504 102.431 47.8504H106.38C106.463 47.8504 106.546 47.8647 106.623 47.8926C106.701 47.9205 106.771 47.9614 106.83 48.0129C106.889 48.0645 106.936 48.1257 106.968 48.1931C107 48.2605 107.016 48.3327 107.016 48.4056V51.8498C107.016 51.9228 107 51.995 106.968 52.0624C106.936 52.1298 106.889 52.191 106.83 52.2425C106.771 52.2941 106.701 52.335 106.623 52.3629C106.546 52.3908 106.463 52.4051 106.38 52.4051H102.431C102.348 52.4051 102.265 52.3908 102.188 52.3629C102.11 52.335 102.04 52.2941 101.981 52.2425C101.922 52.191 101.875 52.1298 101.843 52.0624C101.811 51.995 101.795 51.9228 101.795 51.8498ZM92.7911 43.9957V40.5514C92.791 40.4785 92.8074 40.4063 92.8394 40.3389C92.8714 40.2715 92.9183 40.2103 92.9774 40.1587C93.0365 40.1072 93.1067 40.0663 93.1839 40.0384C93.2612 40.0105 93.344 39.9962 93.4276 39.9962H97.376C97.4596 39.9962 97.5424 40.0105 97.6196 40.0384C97.6969 40.0663 97.767 40.1072 97.8262 40.1587C97.8853 40.2103 97.9322 40.2715 97.9641 40.3389C97.9961 40.4063 98.0125 40.4785 98.0125 40.5514V43.9957C98.0125 44.0686 97.9961 44.1408 97.9641 44.2082C97.9322 44.2755 97.8853 44.3368 97.8262 44.3883C97.767 44.4399 97.6969 44.4808 97.6196 44.5087C97.5424 44.5366 97.4596 44.5509 97.376 44.5509H93.4276C93.344 44.5509 93.2612 44.5366 93.1839 44.5087C93.1067 44.4808 93.0365 44.4399 92.9774 44.3883C92.9183 44.3368 92.8714 44.2755 92.8394 44.2082C92.8074 44.1408 92.791 44.0686 92.7911 43.9957ZM122.191 57.6205V54.1763C122.191 54.1033 122.208 54.0311 122.24 53.9637C122.272 53.8964 122.319 53.8351 122.378 53.7836C122.437 53.732 122.507 53.6911 122.584 53.6632C122.662 53.6353 122.744 53.621 122.828 53.621H126.776C126.86 53.621 126.943 53.6353 127.02 53.6632C127.097 53.6911 127.167 53.732 127.227 53.7836C127.286 53.8351 127.333 53.8964 127.364 53.9637C127.396 54.0311 127.413 54.1033 127.413 54.1763V57.6205C127.413 57.6934 127.396 57.7656 127.364 57.833C127.333 57.9004 127.286 57.9616 127.227 58.0132C127.167 58.0647 127.097 58.1056 127.02 58.1335C126.943 58.1614 126.86 58.1757 126.776 58.1757H122.828C122.744 58.1757 122.662 58.1614 122.584 58.1335C122.507 58.1056 122.437 58.0647 122.378 58.0132C122.319 57.9616 122.272 57.9004 122.24 57.833C122.208 57.7656 122.191 57.6934 122.191 57.6205ZM113.187 49.7663V46.322C113.187 46.2491 113.204 46.1769 113.236 46.1095C113.268 46.0421 113.315 45.9809 113.374 45.9294C113.433 45.8778 113.503 45.8369 113.58 45.809C113.658 45.7811 113.74 45.7668 113.824 45.7668H117.772C117.856 45.7668 117.939 45.7811 118.016 45.809C118.093 45.8369 118.163 45.8778 118.223 45.9294C118.282 45.9809 118.329 46.0421 118.36 46.1095C118.392 46.1769 118.409 46.2491 118.409 46.322V49.7663C118.409 49.8392 118.392 49.9114 118.36 49.9788C118.329 50.0462 118.282 50.1074 118.223 50.159C118.163 50.2105 118.093 50.2514 118.016 50.2793C117.939 50.3072 117.856 50.3215 117.772 50.3215H113.824C113.74 50.3215 113.658 50.3072 113.58 50.2793C113.503 50.2514 113.433 50.2105 113.374 50.159C113.315 50.1074 113.268 50.0462 113.236 49.9788C113.204 49.9114 113.187 49.8392 113.187 49.7663ZM104.183 41.9121V38.4678C104.183 38.3949 104.2 38.3227 104.232 38.2553C104.264 38.1879 104.311 38.1267 104.37 38.0752C104.429 38.0236 104.499 37.9827 104.576 37.9548C104.654 37.9269 104.736 37.9126 104.82 37.9126H108.768C108.852 37.9126 108.935 37.9269 109.012 37.9548C109.089 37.9827 109.159 38.0236 109.219 38.0752C109.278 38.1267 109.325 38.1879 109.357 38.2553C109.388 38.3227 109.405 38.3949 109.405 38.4678V41.9121C109.405 41.985 109.388 42.0572 109.357 42.1246C109.325 42.192 109.278 42.2532 109.219 42.3048C109.159 42.3563 109.089 42.3972 109.012 42.4251C108.935 42.453 108.852 42.4673 108.768 42.4673H104.82C104.736 42.4673 104.654 42.453 104.576 42.4251C104.499 42.3972 104.429 42.3563 104.37 42.3048C104.311 42.2532 104.264 42.192 104.232 42.1246C104.2 42.0572 104.183 41.985 104.183 41.9121ZM96.206 72.4335V68.9892C96.2059 68.9163 96.2223 68.8441 96.2543 68.7767C96.2863 68.7093 96.3332 68.6481 96.3923 68.5966C96.4514 68.545 96.5216 68.5041 96.5988 68.4762C96.6761 68.4483 96.7589 68.434 96.8425 68.434H100.791C100.875 68.434 100.957 68.4483 101.035 68.4762C101.112 68.5041 101.182 68.545 101.241 68.5966C101.3 68.6481 101.347 68.7093 101.379 68.7767C101.411 68.8441 101.427 68.9163 101.427 68.9892V72.4335C101.427 72.5064 101.411 72.5786 101.379 72.646C101.347 72.7134 101.3 72.7746 101.241 72.8262C101.182 72.8777 101.112 72.9186 101.035 72.9465C100.957 72.9744 100.875 72.9887 100.791 72.9887H96.8425C96.7589 72.9887 96.6761 72.9744 96.5988 72.9465C96.5216 72.9186 96.4514 72.8777 96.3923 72.8262C96.3332 72.7746 96.2863 72.7134 96.2543 72.646C96.2223 72.5786 96.2059 72.5064 96.206 72.4335ZM87.202 64.5793V61.135C87.2019 61.0621 87.2184 60.9899 87.2503 60.9225C87.2823 60.8551 87.3292 60.7939 87.3883 60.7423C87.4474 60.6908 87.5176 60.6499 87.5948 60.622C87.6721 60.5941 87.7549 60.5798 87.8385 60.5798H91.7869C91.8705 60.5798 91.9533 60.5941 92.0306 60.622C92.1078 60.6499 92.178 60.6908 92.2371 60.7423C92.2962 60.7939 92.3431 60.8551 92.3751 60.9225C92.407 60.9899 92.4234 61.0621 92.4234 61.135V64.5793C92.4234 64.6522 92.407 64.7244 92.3751 64.7918C92.3431 64.8592 92.2962 64.9204 92.2371 64.972C92.178 65.0235 92.1078 65.0644 92.0306 65.0923C91.9533 65.1202 91.8705 65.1345 91.7869 65.1345H87.8385C87.7549 65.1345 87.6721 65.1202 87.5948 65.0923C87.5176 65.0644 87.4474 65.0235 87.3883 64.972C87.3292 64.9204 87.2823 64.8592 87.2503 64.7918C87.2184 64.7244 87.2019 64.6522 87.202 64.5793ZM107.598 70.3499V66.9057C107.598 66.8327 107.615 66.7605 107.647 66.6932C107.679 66.6258 107.726 66.5645 107.785 66.513C107.844 66.4614 107.914 66.4205 107.991 66.3926C108.068 66.3647 108.151 66.3504 108.235 66.3505H112.183C112.267 66.3504 112.35 66.3647 112.427 66.3926C112.504 66.4205 112.574 66.4614 112.633 66.513C112.693 66.5645 112.739 66.6258 112.771 66.6932C112.803 66.7605 112.82 66.8327 112.82 66.9057V70.3499C112.82 70.4228 112.803 70.495 112.771 70.5624C112.739 70.6298 112.693 70.691 112.633 70.7426C112.574 70.7942 112.504 70.8351 112.427 70.8629C112.35 70.8908 112.267 70.9052 112.183 70.9051H108.235C108.151 70.9052 108.068 70.8908 107.991 70.8629C107.914 70.8351 107.844 70.7942 107.785 70.7426C107.726 70.691 107.679 70.6298 107.647 70.5624C107.615 70.495 107.598 70.4228 107.598 70.3499ZM98.5946 62.4957V59.0515C98.5945 58.9785 98.6109 58.9063 98.6429 58.8389C98.6749 58.7716 98.7218 58.7103 98.7809 58.6588C98.84 58.6072 98.9102 58.5663 98.9874 58.5384C99.0647 58.5105 99.1474 58.4962 99.231 58.4962H103.179C103.263 58.4962 103.346 58.5105 103.423 58.5384C103.5 58.5663 103.571 58.6072 103.63 58.6588C103.689 58.7103 103.736 58.7716 103.768 58.8389C103.8 58.9063 103.816 58.9785 103.816 59.0515V62.4957C103.816 62.5686 103.8 62.6408 103.768 62.7082C103.736 62.7756 103.689 62.8368 103.63 62.8884C103.571 62.94 103.5 62.9808 103.423 63.0087C103.346 63.0366 103.263 63.051 103.179 63.0509H99.231C99.1474 63.051 99.0647 63.0366 98.9874 63.0087C98.9102 62.9808 98.84 62.94 98.7809 62.8884C98.7218 62.8368 98.6749 62.7756 98.6429 62.7082C98.6109 62.6408 98.5945 62.5686 98.5946 62.4957ZM89.5906 54.6415V51.1973C89.5905 51.1243 89.607 51.0521 89.6389 50.9847C89.6709 50.9174 89.7178 50.8561 89.7769 50.8046C89.836 50.753 89.9062 50.7121 89.9834 50.6842C90.0607 50.6563 90.1435 50.642 90.2271 50.6421H94.1755C94.2591 50.642 94.3419 50.6563 94.4191 50.6842C94.4964 50.7121 94.5666 50.753 94.6257 50.8046C94.6848 50.8561 94.7317 50.9174 94.7636 50.9847C94.7956 51.0521 94.812 51.1243 94.812 51.1973V54.6415C94.812 54.7144 94.7956 54.7866 94.7636 54.854C94.7317 54.9214 94.6848 54.9826 94.6257 55.0342C94.5666 55.0857 94.4964 55.1266 94.4191 55.1545C94.3419 55.1824 94.2591 55.1968 94.1755 55.1967H90.2271C90.1435 55.1968 90.0607 55.1824 89.9834 55.1545C89.9062 55.1266 89.836 55.0857 89.7769 55.0342C89.7178 54.9826 89.6709 54.9214 89.6389 54.854C89.607 54.7866 89.5905 54.7144 89.5906 54.6415ZM85.808 44.5271V46.7873C85.8081 46.8602 85.7916 46.9324 85.7596 46.9998C85.7277 47.0672 85.6808 47.1284 85.6217 47.18C85.5626 47.2315 85.4924 47.2724 85.4151 47.3003C85.3379 47.3282 85.2551 47.3425 85.1715 47.3425H83.6212C84.2574 46.3517 84.989 45.4099 85.808 44.5271ZM83.4194 53.2808V56.7251C83.4195 56.798 83.403 56.8702 83.3711 56.9376C83.3391 57.005 83.2922 57.0662 83.2331 57.1178C83.174 57.1693 83.1038 57.2102 83.0266 57.2381C82.9493 57.266 82.8665 57.2803 82.7829 57.2803H80.6911C80.6818 55.7482 80.872 54.2202 81.2581 52.7256H82.7829C82.8665 52.7256 82.9493 52.7399 83.0266 52.7678C83.1038 52.7957 83.174 52.8366 83.2331 52.8882C83.2922 52.9397 83.3391 53.0009 83.3711 53.0683C83.403 53.1357 83.4195 53.2079 83.4194 53.2808ZM105.846 76.2882H109.795C109.878 76.2882 109.961 76.3025 110.039 76.3304C110.116 76.3583 110.186 76.3992 110.245 76.4508C110.304 76.5023 110.351 76.5635 110.383 76.6309C110.415 76.6983 110.431 76.7705 110.431 76.8434V77.2485C108.726 77.6434 106.974 77.8671 105.21 77.9152V76.8434C105.21 76.7705 105.226 76.6983 105.258 76.6309C105.29 76.5635 105.337 76.5023 105.396 76.4508C105.455 76.3992 105.526 76.3583 105.603 76.3304C105.68 76.3025 105.763 76.2882 105.846 76.2882ZM99.7644 34.6131H96.9907C98.036 33.7062 99.1778 32.8882 100.401 32.1701V34.0579C100.401 34.1308 100.385 34.203 100.353 34.2704C100.321 34.3378 100.274 34.399 100.215 34.4506C100.155 34.5021 100.085 34.543 100.008 34.5709C99.9308 34.5988 99.848 34.6131 99.7644 34.6131ZM112.605 28.7643V31.2662C112.605 31.3392 112.589 31.4114 112.557 31.4788C112.525 31.5461 112.478 31.6074 112.419 31.6589C112.36 31.7105 112.29 31.7514 112.213 31.7793C112.135 31.8072 112.052 31.8215 111.969 31.8214H108.02C107.937 31.8215 107.854 31.8072 107.777 31.7793C107.7 31.7514 107.629 31.7105 107.57 31.6589C107.511 31.6074 107.464 31.5461 107.432 31.4788C107.4 31.4114 107.384 31.3392 107.384 31.2662V29.4182C109.09 29.0275 110.842 28.8081 112.605 28.7643ZM135.032 50.8292H137.008C136.893 52.3742 136.574 53.9025 136.058 55.3839H135.032C134.949 55.3839 134.866 55.3696 134.789 55.3417C134.711 55.3138 134.641 55.2729 134.582 55.2214C134.523 55.1698 134.476 55.1086 134.444 55.0412C134.412 54.9738 134.396 54.9016 134.396 54.8287V51.3844C134.396 51.3115 134.412 51.2393 134.444 51.1719C134.476 51.1046 134.523 51.0433 134.582 50.9918C134.641 50.9402 134.711 50.8993 134.789 50.8714C134.866 50.8435 134.949 50.8292 135.032 50.8292Z" fill="#FFC136"/>
<path d="M98.7393 65.9733L99.4928 65.6579L100.399 65.285L100.973 65.0493C101.074 65.0071 101.185 64.9644 101.286 64.9191L101.566 64.7771C101.983 64.5645 102.402 64.3546 102.822 64.1474C103.261 63.9343 103.785 63.6579 104.327 63.3747C104.87 63.0899 105.445 62.7985 106.036 62.4543L107.412 61.6866L107.883 61.4033C109.152 60.6532 110.482 59.798 111.845 58.8683L112.873 58.1584C113.218 57.9191 113.558 57.6552 113.905 57.4059C114.25 57.1498 114.601 56.9065 114.946 56.6363L115.985 55.8278C116.334 55.5623 116.677 55.2774 117.024 54.9942L118.062 54.1435L119.089 53.2546L119.603 52.8091L120.111 52.3491C121.477 51.1468 122.793 49.8396 124.09 48.5489C124.732 47.8882 125.37 47.237 125.988 46.5604C126.614 45.9033 127.22 45.2162 127.822 44.5546C128.415 43.869 129.003 43.2086 129.57 42.5246C130.144 41.8583 130.698 41.1788 131.241 40.517C131.513 40.1866 131.778 39.8467 132.042 39.5182C132.305 39.1914 132.564 38.8623 132.819 38.5308L133.577 37.5623L134.311 36.6034C134.792 35.9755 135.255 35.3467 135.703 34.7461C136.151 34.1349 136.577 33.5496 137.006 32.986C137.858 31.8723 138.695 30.8634 139.486 30.0018C139.857 29.5933 140.24 29.1924 140.633 28.7997C141.003 28.427 141.357 28.0977 141.679 27.8008C142.341 27.1962 142.893 26.7506 143.302 26.4404C143.703 26.1353 143.935 25.989 143.935 25.989C153.856 19.7554 167.692 21.7176 174.838 30.3719C180.478 37.2022 180.265 46.1594 175.048 52.6961L174.933 52.8305C174.933 52.8305 174.773 53.0293 174.439 53.371C174.113 53.7079 173.587 54.2113 172.876 54.8142C172.51 55.12 172.103 55.4578 171.645 55.8114C171.139 56.2011 170.623 56.5809 170.098 56.9505C168.955 57.7522 167.612 58.6196 166.042 59.5148C164.478 60.4045 162.707 61.326 160.829 62.3007C158.955 63.2758 156.917 64.2697 154.794 65.2639C152.666 66.2602 150.419 67.2432 148.109 68.1907C145.786 69.1339 143.398 70.039 140.967 70.8699C140.364 71.0817 139.744 71.2774 139.136 71.4793C138.527 71.6804 137.918 71.8761 137.297 72.0594L135.456 72.6113L133.607 73.1251L132.691 73.3757L131.766 73.6064L129.936 74.0553L128.113 74.46L127.214 74.6557C126.916 74.7197 126.611 74.773 126.312 74.8314L124.536 75.1659C123.952 75.2764 123.359 75.3622 122.783 75.4577C122.204 75.5491 121.638 75.6432 121.07 75.7192L119.388 75.935C117.183 76.216 115.079 76.3674 113.155 76.4737C111.225 76.5696 109.468 76.6119 107.908 76.5744C107.129 76.5638 106.42 76.5577 105.702 76.5263C105.065 76.5046 104.427 76.477 103.791 76.4434L103.374 76.422C103.247 76.4117 103.137 76.3967 103.023 76.3848L102.393 76.3149L101.4 76.2033L100.571 76.1055C97.2122 75.7088 94.8576 73.0118 95.3126 70.0815C95.5977 68.2417 96.9601 66.7321 98.7393 65.9733Z" fill="#FF473E"/>
<path d="M157.09 34.6939L155.974 35.2814C155.896 35.3211 155.85 35.3506 155.794 35.3834L155.623 35.4849L155.242 35.7062L155.033 35.8254L154.799 35.9815C154.483 36.2017 154.123 36.4156 153.768 36.6954L153.211 37.1103C153.022 37.2548 152.835 37.4154 152.64 37.572C152.249 37.8804 151.86 38.2353 151.459 38.5864C151.258 38.7624 151.062 38.954 150.861 39.1391C150.661 39.3257 150.459 39.512 150.261 39.7094L149.664 40.2928L149.072 40.8885L147.911 42.0708C147.528 42.4617 147.159 42.839 146.792 43.203C146.436 43.5639 146.068 43.9101 145.739 44.2262C145.425 44.5181 145.105 44.8056 144.78 45.0886C144.468 45.3431 144.207 45.5639 143.973 45.7427L143.202 46.2949C142.825 46.5665 142.344 46.7044 141.855 46.6815C141.366 46.6586 140.905 46.4765 140.562 46.1712C140.22 45.8659 140.021 45.4597 140.006 45.0328C139.991 44.606 140.159 44.1897 140.479 43.8661L140.624 43.7198L141.087 43.2501C141.233 43.0936 141.407 42.8833 141.608 42.6562C141.832 42.3803 142.052 42.1016 142.268 41.8203C142.505 41.4953 142.764 41.1554 143.033 40.7657C143.303 40.3871 143.59 39.9705 143.886 39.5412L144.817 38.1936L145.308 37.4927L145.822 36.782C145.99 36.5445 146.172 36.3073 146.352 36.0707C146.534 35.8344 146.706 35.5974 146.894 35.3647C147.272 34.8997 147.632 34.4378 148.026 34.0009C148.22 33.7817 148.403 33.5633 148.598 33.3544L149.18 32.745C149.548 32.3436 149.956 31.9882 150.309 31.6488L150.575 31.4012L150.867 31.1584L151.411 30.7113L151.661 30.5083C151.741 30.4432 151.824 30.3757 151.88 30.3353L152.87 29.5952C154.386 28.4607 156.67 28.6135 157.971 29.9364C159.271 31.2593 159.096 33.2516 157.579 34.386C157.433 34.4958 157.276 34.5953 157.111 34.6834L157.09 34.6939Z" fill="#FF6E83"/>
<path d="M201.402 28.1759L200.282 27.0451C200.112 26.8753 199.898 26.7005 199.678 26.5035C199.453 26.31 199.222 26.0933 198.951 25.8767L198.059 25.2039C197.979 25.1458 197.904 25.0833 197.817 25.0271L197.553 24.8575L197.005 24.5083C196.254 24.0388 195.367 23.5919 194.374 23.1993C194.254 23.1451 194.125 23.1022 193.994 23.0611L193.6 22.9338L193.201 22.8068C193.067 22.7607 192.93 22.7227 192.791 22.6932L191.941 22.5009C191.869 22.4856 191.798 22.4681 191.725 22.4546L191.504 22.4232L191.06 22.3618C190.762 22.3209 190.463 22.2763 190.158 22.2688C189.854 22.2538 189.547 22.234 189.239 22.2266L188.314 22.2527L188.082 22.2607L187.852 22.2839L187.392 22.3319C186.168 22.4708 184.959 22.7334 183.834 23.1106C182.707 23.4832 181.626 23.9219 180.633 24.4242C180.092 24.6955 179.559 24.9799 179.036 25.2769C175.296 22.3364 170.075 21.4545 165.428 22.7768C165.416 22.8206 165.429 22.8551 165.412 22.9001C164.975 24.0698 164.614 25.2884 170.414 30.794C176.214 36.2996 181.52 41.0984 182.462 39.0312C184.019 35.6145 183.959 31.7152 181.889 28.414C182.221 28.2729 182.555 28.1371 182.893 28.0069C183.763 27.6673 184.652 27.4151 185.517 27.223C186.383 27.0253 187.224 26.9473 188.004 26.9449L188.295 26.946L188.439 26.9455L188.579 26.9593C188.765 26.9772 188.949 26.9927 189.13 27.0057L189.653 27.0956C189.827 27.1151 189.991 27.1666 190.153 27.2104L190.395 27.2729L190.515 27.3025C190.554 27.3153 190.593 27.3315 190.631 27.3456C190.785 27.4037 190.936 27.4585 191.086 27.51C191.123 27.5235 191.161 27.5339 191.197 27.5496L191.305 27.602L191.518 27.7033L191.728 27.7998C191.798 27.8295 191.867 27.8607 191.933 27.9043C192.47 28.2047 192.961 28.5263 193.397 28.8831L193.716 29.1463L193.87 29.2712C193.921 29.3126 193.967 29.3647 194.015 29.4096L194.554 29.9296C194.721 30.0986 194.867 30.2789 195.008 30.4313C195.146 30.5901 195.279 30.7217 195.389 30.8628L196.076 31.7443C196.148 31.8359 196.228 31.9271 196.313 32.0129C197.527 33.2387 199.651 33.3735 201.056 32.3141C202.462 31.2545 202.617 29.4019 201.402 28.1759Z" fill="#00B89C"/>
<path d="M63.0453 44.6195C62.9864 44.6195 62.9271 44.6171 62.8672 44.6124C61.8135 44.5278 61.0383 43.7141 61.1354 42.7951C62.3628 31.1769 67.8557 25.7553 72.702 20.9719C76.0895 17.6283 78.8616 14.8925 79.744 10.5529C79.9225 7.83275 80.1047 7.4956 80.1915 7.33483C80.5807 6.61421 81.5041 6.2289 82.3906 6.42058C83.0659 6.56663 83.8544 7.10627 83.855 8.14624C83.855 8.24472 83.8509 8.37227 83.8422 8.53637C83.7986 9.36409 83.704 10.1476 83.5643 10.8918C83.375 13.7655 83.2098 18.6996 83.5809 23.8004C84.2598 33.1334 86.4652 39.4569 89.7905 41.6055C90.6405 42.155 90.8193 43.2015 90.1895 43.9431C89.5596 44.6848 88.3598 44.8406 87.5097 44.2912C83.0583 41.4148 80.4367 34.3997 79.7177 23.4407C79.6167 21.9039 79.5622 20.4105 79.5391 19.0104C78.3306 20.4634 76.9649 21.8113 75.573 23.1852C70.8977 27.7998 66.0632 32.5715 64.9507 43.1018C64.859 43.9685 64.0239 44.6195 63.0453 44.6195Z" fill="#F01919"/>
<path d="M91.9705 63.7661C100.644 63.7661 107.676 57.6326 107.676 50.0665C107.676 42.5005 100.644 36.367 91.9705 36.367C83.2969 36.367 76.2655 42.5005 76.2655 50.0665C76.2655 57.6326 83.2969 63.7661 91.9705 63.7661Z" fill="#D81637"/>
<path d="M84.2118 45.7863C83.7298 45.7863 83.2436 45.6559 82.8271 45.3858C81.798 44.7179 81.5842 43.4485 82.35 42.5507C83.7443 40.9158 85.7878 39.6759 88.104 39.0594C89.331 38.7327 90.6291 39.3357 91.0036 40.406C91.3781 41.4763 90.6869 42.6086 89.4599 42.9353C88.0853 43.3013 86.884 44.0237 86.0772 44.9695C85.6213 45.504 84.9211 45.7863 84.2118 45.7863Z" fill="#EF5454"/>
<path d="M106.95 22.9178C106.95 22.9178 106.788 22.8882 106.507 22.8201C106.114 22.7242 105.725 22.6147 105.342 22.4921L105.157 22.433L104.967 22.3893C104.836 22.3613 104.71 22.3265 104.575 22.295C104.299 22.2269 104.023 22.1569 103.748 22.0849C103.44 22.0094 103.133 21.9308 102.828 21.8494C102.668 21.8111 102.52 21.7582 102.355 21.7236C102.189 21.6889 102.032 21.6466 101.867 21.609C101.703 21.5718 101.545 21.5276 101.383 21.4868L100.888 21.3811C100.725 21.3474 100.562 21.3105 100.4 21.2705C100.321 21.2495 100.235 21.2405 100.152 21.2251L99.9086 21.1781L99.4258 21.0837C99.2646 21.0605 99.104 21.0348 98.944 21.0065C98.8654 20.9922 98.786 20.9792 98.7092 20.9635C98.6318 20.9487 98.5493 20.9429 98.4711 20.931C98.3155 20.9099 98.1604 20.8862 98.0059 20.8597C97.8522 20.8359 97.6921 20.8239 97.541 20.8001C97.4651 20.79 97.3894 20.7787 97.314 20.7661C97.2388 20.7541 97.1577 20.7504 97.0814 20.7401C96.9263 20.7227 96.7761 20.7008 96.6249 20.6788C96.469 20.664 96.3136 20.6454 96.1588 20.6232C95.5311 20.5483 94.8939 20.4591 94.1858 20.3552C93.8217 20.3073 93.4672 20.2447 93.0716 20.1841L92.4784 20.0831C92.3762 20.0666 92.2753 20.0449 92.1738 20.0259L91.8617 19.9634C91.0307 19.7911 90.1048 19.5595 89.1611 19.2429C88.6762 19.081 88.1992 18.9016 87.7314 18.7051C87.4896 18.6014 87.25 18.4939 87.0127 18.3826C86.78 18.2736 86.5332 18.1442 86.3042 18.0231L85.9622 17.8359L85.6188 17.6303C85.3936 17.4877 85.1801 17.3546 84.9654 17.208C84.7578 17.0579 84.5525 16.9056 84.3494 16.751C84.2507 16.6741 84.1545 16.5949 84.0609 16.5133C83.9665 16.4307 83.8721 16.3529 83.7834 16.2689L83.5214 16.0239C83.4359 15.9438 83.3522 15.8652 83.2739 15.7754C83.1162 15.601 82.9631 15.4367 82.8252 15.2661C82.7558 15.1813 82.6872 15.1007 82.6227 15.0162C82.5583 14.931 82.4997 14.8416 82.4408 14.7568C82.3269 14.5929 82.2191 14.4259 82.1174 14.2561C82.0143 14.0988 81.9366 13.9241 81.8588 13.7651C81.7805 13.6062 81.7158 13.4462 81.6529 13.2981C81.621 13.2244 81.5948 13.148 81.5691 13.0745L81.5039 12.8525C81.4637 12.7075 81.4234 12.575 81.3949 12.4427C81.2707 11.9221 81.2625 11.489 81.2666 11.1935C81.2665 11.048 81.2773 10.9314 81.2844 10.8536L81.2952 10.7365C81.3144 10.5291 81.4184 10.3346 81.5882 10.1884C81.758 10.0422 81.9823 9.95414 82.2204 9.94016L82.4558 9.92648C82.5427 9.92085 82.672 9.91131 82.8264 9.90534C83.146 9.88316 83.5633 9.88488 84.078 9.82881C84.33 9.80536 84.5812 9.79778 84.8675 9.75009C85.1466 9.71067 85.4214 9.67884 85.7082 9.62851C86.0041 9.56795 86.2726 9.53152 86.5691 9.46039C86.7167 9.42431 86.8564 9.39799 86.9983 9.36478C87.1381 9.3333 87.2901 9.29595 87.4337 9.25987C87.5808 9.22298 87.7106 9.19977 87.867 9.1561L88.3075 9.05199C88.4521 9.02246 88.6142 8.9835 88.7649 8.95017L89.2356 8.85721L89.4774 8.81446L89.7252 8.77482C90.2742 8.69049 90.8286 8.63519 91.3852 8.60923C92.192 8.57291 93.0836 8.5867 94.0939 8.69231L94.2791 8.71138L94.4731 8.73598C94.6024 8.75356 94.7325 8.76838 94.8618 8.78849C94.9919 8.80826 95.1193 8.82549 95.2521 8.84756L95.658 8.9203C96.191 9.01476 96.7607 9.14174 97.3204 9.28342C98.5061 9.58814 99.6535 9.99659 100.745 10.5025C101.022 10.6348 101.297 10.7709 101.569 10.9107C101.838 11.0576 102.102 11.2127 102.361 11.3664C102.49 11.444 102.618 11.5199 102.743 11.6022C102.868 11.685 102.991 11.77 103.112 11.8546C103.354 12.0243 103.594 12.1911 103.82 12.3687C104.041 12.5479 104.259 12.7301 104.473 12.9153C104.578 13.0072 104.684 13.0967 104.782 13.1916C104.881 13.2866 104.976 13.3838 105.071 13.4792C105.257 13.6673 105.439 13.8582 105.618 14.052C105.789 14.2449 105.941 14.4474 106.095 14.6412C106.248 14.8354 106.398 15.0269 106.529 15.2237C106.658 15.4206 106.782 15.6151 106.896 15.8099C107.01 16.0042 107.128 16.1896 107.223 16.3823C107.316 16.5758 107.408 16.7616 107.488 16.9497C107.569 17.1372 107.651 17.3154 107.72 17.4963C107.758 17.5851 107.786 17.676 107.815 17.7649C107.845 17.8535 107.874 17.9413 107.899 18.0294C108 18.3583 108.088 18.69 108.164 19.024C108.23 19.3527 108.278 19.6596 108.313 19.9425C108.328 20.0853 108.347 20.2177 108.354 20.3494L108.366 20.5398L108.36 20.7117C108.348 21.0678 108.319 21.4233 108.274 21.7774C108.241 22.031 108.213 22.173 108.213 22.173C108.188 22.2926 108.137 22.407 108.062 22.5095C107.988 22.612 107.89 22.7006 107.776 22.7703C107.662 22.8399 107.533 22.8893 107.397 22.9156C107.261 22.9418 107.121 22.9444 106.983 22.9232C106.974 22.922 106.96 22.9194 106.95 22.9178Z" fill="#2FEA08"/>
<path d="M63.043 59.7107C71.7167 59.7107 78.7481 53.5772 78.7481 46.0111C78.7481 38.4451 71.7167 32.3116 63.043 32.3116C54.3694 32.3116 47.338 38.4451 47.338 46.0111C47.338 53.5772 54.3694 59.7107 63.043 59.7107Z" fill="#E84951"/>
<path d="M55.1524 41.1559C54.6703 41.1559 54.1842 41.0255 53.7678 40.7552C52.7386 40.0873 52.525 38.8181 53.2907 37.9202C54.6852 36.2853 56.7287 35.0455 59.0447 34.429C60.2714 34.1026 61.5697 34.7052 61.9442 35.7755C62.3187 36.8458 61.6275 37.9782 60.4005 38.3049C59.026 38.6708 57.8247 39.3932 57.0178 40.3392C56.5619 40.8736 55.8616 41.1559 55.1524 41.1559Z" fill="#F10F0F"/>
<path fill-rule="evenodd" clip-rule="evenodd" d="M71.7038 114.38C79.9957 114.067 86.8763 118.168 87.0988 123.535L122.372 122.582C123.527 122.551 124.474 122.948 124.49 123.47C124.507 123.992 123.587 124.439 122.433 124.47L86.8971 125.429C85.7199 130.023 79.6632 133.705 72.2841 133.983C63.9548 134.297 57.047 130.156 56.8869 124.751C56.7269 119.346 63.3745 114.694 71.7038 114.38ZM82.988 123.767C82.8715 119.833 77.8445 116.821 71.7828 117.049C65.7211 117.278 60.8857 120.662 61.0019 124.595C61.1184 128.529 66.1433 131.542 72.205 131.314C78.2667 131.085 83.1043 127.701 82.988 123.767Z" fill="#37AA1B"/>
<path fill-rule="evenodd" clip-rule="evenodd" d="M154.195 113.982C162.527 113.668 169.435 117.81 169.595 123.215C169.754 128.619 163.107 133.272 154.776 133.586C146.447 133.9 139.538 129.758 139.378 124.353C139.218 118.949 145.866 114.296 154.195 113.982ZM165.479 123.369C165.363 119.436 160.336 116.423 154.274 116.652C148.215 116.88 143.377 120.265 143.494 124.199C143.61 128.132 148.635 131.145 154.697 130.916C160.758 130.688 165.595 127.303 165.479 123.369Z" fill="#37AA1B"/>
<path d="M168.686 103.025C169.839 102.988 170.786 103.47 170.805 104.103C170.825 104.737 169.909 105.28 168.757 105.317L41.5591 109.469C34.7849 109.69 29.3657 112.901 29.481 116.626C29.5965 120.351 35.2037 123.202 41.9779 122.981C43.1281 122.943 44.0778 123.425 44.0974 124.058C44.117 124.692 43.1995 125.235 42.0493 125.272C32.9765 125.568 25.468 121.751 25.3133 116.762C25.1587 111.773 32.4136 107.473 41.4884 107.177L168.686 103.025Z" fill="#37AA1B"/>
<path d="M13.0001 44.8562C22.7588 44.5021 31.2187 48.5025 33.571 54.5857L51.9877 102.217L56.387 102.057L41.7983 52.4961L147.475 51.0675L177.206 49.9892C177.81 49.9673 178.384 50.1253 178.767 50.4156C179.152 50.7071 179.308 51.1009 179.182 51.4867L163.866 99.7257C163.802 99.9281 163.666 100.112 163.479 100.269L163.203 101.291L139.363 101.613L50.4866 104.838C49.5618 104.871 48.7468 104.486 48.5252 103.91L29.7264 55.2952C27.8234 50.3716 20.976 47.1346 13.0771 47.4211L2.65121 47.7992C1.558 47.8388 0.652982 47.2967 0.631487 46.5889C0.610182 45.8811 1.48034 45.2745 2.57355 45.2348L13.0001 44.8562Z" fill="#37AA1B"/>
<path d="M86.2523 22.6312C86.2793 22.5357 86.3357 22.5071 86.3785 22.5671C86.5224 22.7701 86.6178 22.9389 86.6884 23.1229C86.6912 23.1207 86.6943 23.1186 86.6974 23.1163C86.7048 23.1109 86.7129 23.1047 86.7217 23.0994C86.7303 23.0932 86.7407 23.0887 86.7515 23.0848C86.7729 23.0761 86.7978 23.0669 86.8243 23.0637C86.8379 23.0621 86.8516 23.0613 86.8652 23.0612C86.8795 23.0607 86.8945 23.0618 86.9096 23.0655C86.9247 23.0684 86.9407 23.0723 86.9567 23.077C86.9724 23.0822 86.9883 23.0907 87.0045 23.0987L87.0295 23.1127C87.0378 23.1177 87.0462 23.1242 87.0545 23.1302C87.0628 23.1362 87.0712 23.1428 87.0794 23.1496C87.0875 23.1564 87.0958 23.1622 87.1037 23.1707C87.12 23.1869 87.1367 23.2042 87.1529 23.2221C87.1611 23.2306 87.1687 23.2413 87.1765 23.2512C87.1843 23.2614 87.1924 23.2713 87.2001 23.282C87.2158 23.3025 87.2299 23.3267 87.2444 23.3503C87.259 23.3731 87.2729 23.398 87.286 23.4247C87.299 23.4509 87.3121 23.4773 87.3235 23.5052L87.3408 23.5469L87.3568 23.5892C87.3669 23.6181 87.3757 23.6479 87.3845 23.6769L87.397 23.7205L87.4081 23.7646C87.4149 23.793 87.4213 23.822 87.4275 23.8511C87.4328 23.8789 87.4381 23.9069 87.4427 23.9352C87.4519 23.99 87.4582 24.0427 87.4629 24.0906C87.4652 24.1144 87.4667 24.138 87.4684 24.159C87.4697 24.1807 87.471 24.2012 87.4719 24.2195C87.4732 24.2563 87.4734 24.286 87.4733 24.3072V24.3398C87.4731 24.347 87.4719 24.3545 87.4705 24.361C87.4691 24.3672 87.4673 24.3728 87.4649 24.3773C87.4624 24.3819 87.459 24.3851 87.4559 24.387C87.4529 24.3888 87.45 24.3893 87.4469 24.3882L87.4427 24.387C87.4403 24.3861 87.4362 24.3844 87.4317 24.3822C87.4224 24.3781 87.4098 24.3709 87.3942 24.361C87.3762 24.3486 87.3578 24.3351 87.3401 24.3205C87.3204 24.3037 87.2997 24.2825 87.2777 24.26C87.2666 24.2482 87.2553 24.2361 87.2444 24.2231C87.2331 24.2103 87.2215 24.1966 87.2105 24.1826L87.1772 24.1384L87.1606 24.1154C87.1551 24.1075 87.1495 24.0987 87.1439 24.0912L87.128 24.067L87.1113 24.0422L87.0794 23.9914C87.0788 23.9905 87.0786 23.9894 87.078 23.9884C87.0993 24.0745 87.1185 24.1625 87.1321 24.2515C87.1479 24.3522 87.1583 24.4569 87.1633 24.563C87.1656 24.6116 87.1664 24.6575 87.1661 24.6997C87.1662 24.7413 87.1653 24.7794 87.164 24.811C87.1624 24.843 87.1608 24.869 87.1592 24.8872C87.1585 24.896 87.1576 24.903 87.1571 24.9077L87.1564 24.915C87.1549 24.9296 87.152 24.9435 87.1481 24.9555C87.1441 24.9676 87.1386 24.9776 87.1328 24.9851C87.127 24.9926 87.1207 24.9974 87.1141 24.9991C87.1075 25.0007 87.1011 24.9992 87.0947 24.9948L87.0912 24.993C87.0882 24.991 87.0852 24.9887 87.0822 24.9864C87.0744 24.9804 87.0635 24.9708 87.0503 24.9579C87.0374 24.9446 87.022 24.9275 87.0059 24.9065C86.9895 24.8861 86.9723 24.8612 86.9546 24.8327C86.916 24.7701 86.8804 24.6976 86.8492 24.6168C86.8198 24.5415 86.7942 24.4551 86.7702 24.3652C86.77 24.3672 86.7691 24.3693 86.7688 24.3713L86.7626 24.4196C86.7603 24.4358 86.7582 24.4522 86.7563 24.4686C86.7521 24.5014 86.7479 24.5345 86.7432 24.5666C86.739 24.5988 86.7345 24.6309 86.73 24.6628C86.7204 24.726 86.7124 24.7897 86.7023 24.8491C86.6928 24.909 86.6825 24.9666 86.6724 25.0196C86.6629 25.0724 86.6536 25.1212 86.644 25.1648C86.6346 25.2082 86.6262 25.249 86.6184 25.2809C86.6124 25.3061 86.6063 25.331 86.5996 25.3553L86.592 25.3819C86.59 25.3887 86.5869 25.3944 86.5837 25.3982C86.5805 25.402 86.5769 25.4044 86.5733 25.4043C86.5696 25.4041 86.5654 25.4012 86.5622 25.397C86.5591 25.3928 86.5564 25.387 86.5546 25.3801L86.5476 25.3529C86.5415 25.3278 86.5357 25.302 86.5303 25.2761C86.5269 25.2595 86.5228 25.2409 86.5192 25.221C86.5154 25.2012 86.5116 25.1795 86.5081 25.1557C86.4996 25.1032 86.4917 25.05 86.4852 24.996C86.4787 24.9374 86.4721 24.8735 86.4672 24.8055C86.4649 24.7715 86.4635 24.7362 86.4617 24.7003L86.4589 24.6452L86.4575 24.5896C86.4569 24.552 86.4566 24.5135 86.4568 24.4747C86.4571 24.4356 86.4579 24.396 86.4589 24.3561C86.4597 24.3164 86.4622 24.2761 86.4644 24.2358C86.4666 24.1954 86.4689 24.1546 86.4728 24.1142C86.4794 24.0334 86.4894 23.9535 86.5005 23.8759C86.5128 23.799 86.5267 23.7242 86.5435 23.6558L86.556 23.605C86.5603 23.5887 86.5647 23.5729 86.5691 23.5572C86.5748 23.5379 86.5807 23.5187 86.5865 23.5003C86.5227 23.2904 86.4358 23.1336 86.2807 22.9149C86.2378 22.8544 86.2252 22.7271 86.2523 22.6312Z" fill="#37AA1B"/>
</svg>
