<svg width="547" height="134" viewBox="0 0 547 134" fill="none" xmlns="http://www.w3.org/2000/svg">
<path d="M205.344 54.7845C205.242 53.7533 204.803 52.9521 204.027 52.3811C203.252 51.8101 202.199 51.5246 200.869 51.5246C199.966 51.5246 199.203 51.6524 198.581 51.9081C197.959 52.1553 197.482 52.5004 197.149 52.9436C196.825 53.3868 196.664 53.8896 196.664 54.4521C196.646 54.9209 196.744 55.33 196.958 55.6794C197.179 56.0289 197.482 56.3314 197.865 56.5871C198.249 56.8343 198.692 57.0516 199.195 57.2391C199.698 57.4181 200.235 57.5715 200.806 57.6993L203.158 58.2618C204.3 58.5175 205.348 58.8584 206.303 59.2845C207.257 59.7107 208.084 60.2348 208.783 60.857C209.482 61.4791 210.023 62.2121 210.406 63.0558C210.798 63.8996 210.999 64.8669 211.007 65.9578C210.999 67.5601 210.59 68.9493 209.78 70.1254C208.979 71.2931 207.82 72.2007 206.303 72.8485C204.794 73.4877 202.975 73.8073 200.844 73.8073C198.73 73.8073 196.889 73.4834 195.321 72.8357C193.762 72.1879 192.543 71.2291 191.665 69.9593C190.796 68.6808 190.34 67.0999 190.297 65.2164H195.654C195.713 66.0942 195.965 66.8271 196.408 67.4152C196.86 67.9948 197.46 68.4337 198.21 68.732C198.969 69.0218 199.825 69.1666 200.78 69.1666C201.718 69.1666 202.531 69.0303 203.222 68.7575C203.921 68.4848 204.462 68.1056 204.845 67.6198C205.229 67.134 205.421 66.5757 205.421 65.945C205.421 65.357 205.246 64.8627 204.896 64.4621C204.556 64.0615 204.053 63.7206 203.388 63.4394C202.732 63.1581 201.926 62.9024 200.972 62.6723L198.121 61.9564C195.914 61.4195 194.171 60.58 192.892 59.4379C191.614 58.2959 190.979 56.7575 190.987 54.8229C190.979 53.2377 191.401 51.8527 192.253 50.6681C193.114 49.4834 194.294 48.5587 195.794 47.8939C197.294 47.2291 198.999 46.8967 200.908 46.8967C202.851 46.8967 204.547 47.2291 205.996 47.8939C207.453 48.5587 208.587 49.4834 209.396 50.6681C210.206 51.8527 210.624 53.2249 210.649 54.7845H205.344ZM227.221 65.0757V53.8002H232.667V73.4365H227.438V69.8698H227.233C226.79 71.0203 226.053 71.945 225.022 72.6439C223.999 73.3428 222.751 73.6922 221.276 73.6922C219.964 73.6922 218.809 73.3939 217.812 72.7973C216.814 72.2007 216.035 71.3527 215.472 70.2533C214.918 69.1539 214.637 67.8371 214.628 66.303V53.8002H220.074V65.3314C220.083 66.4905 220.394 67.4067 221.008 68.08C221.621 68.7533 222.444 69.0899 223.475 69.0899C224.131 69.0899 224.745 68.9408 225.316 68.6425C225.887 68.3357 226.347 67.884 226.697 67.2874C227.055 66.6908 227.229 65.9536 227.221 65.0757ZM237.023 80.8002V53.8002H242.392V57.0985H242.635C242.874 56.57 243.219 56.0331 243.671 55.4877C244.131 54.9337 244.727 54.4735 245.46 54.107C246.202 53.732 247.122 53.5445 248.222 53.5445C249.654 53.5445 250.975 53.9195 252.185 54.6695C253.395 55.411 254.362 56.5317 255.087 58.0317C255.811 59.5232 256.173 61.3939 256.173 63.6439C256.173 65.8343 255.82 67.6837 255.112 69.1922C254.414 70.6922 253.459 71.83 252.249 72.6056C251.047 73.3726 249.7 73.7561 248.209 73.7561C247.152 73.7561 246.253 73.5814 245.512 73.232C244.779 72.8825 244.178 72.4436 243.709 71.9152C243.24 71.3783 242.882 70.8371 242.635 70.2916H242.469V80.8002H237.023ZM242.354 63.6183C242.354 64.786 242.516 65.8044 242.84 66.6737C243.164 67.5431 243.632 68.2206 244.246 68.7064C244.86 69.1837 245.605 69.4223 246.483 69.4223C247.369 69.4223 248.119 69.1794 248.733 68.6936C249.347 68.1993 249.811 67.5175 250.127 66.6482C250.45 65.7703 250.612 64.7604 250.612 63.6183C250.612 62.4848 250.455 61.4877 250.139 60.6269C249.824 59.7661 249.36 59.0928 248.746 58.607C248.132 58.1212 247.378 57.8783 246.483 57.8783C245.597 57.8783 244.847 58.1127 244.233 58.5814C243.628 59.0502 243.164 59.7149 242.84 60.5757C242.516 61.4365 242.354 62.4507 242.354 63.6183ZM268.753 73.82C266.733 73.82 264.994 73.411 263.537 72.5928C262.088 71.7661 260.972 70.5985 260.188 69.0899C259.404 67.5729 259.012 65.7789 259.012 63.7078C259.012 61.6879 259.404 59.9152 260.188 58.3896C260.972 56.8641 262.075 55.6752 263.499 54.8229C264.931 53.9706 266.61 53.5445 268.536 53.5445C269.831 53.5445 271.037 53.7533 272.154 54.1709C273.279 54.58 274.259 55.1979 275.094 56.0246C275.938 56.8513 276.594 57.8911 277.063 59.1439C277.531 60.3882 277.766 61.8456 277.766 63.5161V65.0118H261.185V61.6368H272.639C272.639 60.8527 272.469 60.1581 272.128 59.553C271.787 58.9479 271.314 58.4749 270.709 58.134C270.112 57.7845 269.418 57.6098 268.625 57.6098C267.798 57.6098 267.066 57.8016 266.426 58.1851C265.796 58.5601 265.301 59.0672 264.943 59.7064C264.585 60.3371 264.402 61.0402 264.394 61.8158V65.0246C264.394 65.9962 264.573 66.8357 264.931 67.5431C265.297 68.2504 265.813 68.7959 266.477 69.1794C267.142 69.5629 267.931 69.7547 268.843 69.7547C269.448 69.7547 270.002 69.6695 270.504 69.499C271.007 69.3286 271.438 69.0729 271.796 68.732C272.154 68.3911 272.426 67.9735 272.614 67.4791L277.651 67.8115C277.395 69.0218 276.871 70.0786 276.078 70.982C275.294 71.8769 274.28 72.5757 273.036 73.0786C271.8 73.5729 270.372 73.82 268.753 73.82ZM281.32 73.4365V53.8002H286.6V57.2263H286.804C287.162 56.0075 287.763 55.0871 288.607 54.4649C289.45 53.8343 290.422 53.5189 291.521 53.5189C291.794 53.5189 292.088 53.536 292.404 53.57C292.719 53.6041 292.996 53.651 293.235 53.7107V58.5431C292.979 58.4664 292.625 58.3982 292.173 58.3385C291.722 58.2789 291.308 58.249 290.933 58.249C290.132 58.249 289.416 58.4237 288.786 58.7732C288.164 59.1141 287.669 59.5914 287.303 60.205C286.945 60.8186 286.766 61.526 286.766 62.3271V73.4365H281.32ZM296.05 73.4365V53.8002H301.241V57.2646H301.471C301.88 56.1141 302.562 55.2064 303.516 54.5416C304.471 53.8769 305.613 53.5445 306.942 53.5445C308.289 53.5445 309.435 53.8811 310.381 54.5544C311.327 55.2192 311.958 56.1226 312.273 57.2646H312.478C312.878 56.1396 313.603 55.2405 314.651 54.5672C315.708 53.8854 316.956 53.5445 318.397 53.5445C320.229 53.5445 321.716 54.1283 322.858 55.2959C324.009 56.455 324.584 58.0999 324.584 60.2306V73.4365H319.151V61.3044C319.151 60.2135 318.861 59.3953 318.282 58.8499C317.702 58.3044 316.978 58.0317 316.108 58.0317C315.12 58.0317 314.349 58.347 313.795 58.9777C313.241 59.5999 312.964 60.4223 312.964 61.445V73.4365H307.684V61.1894C307.684 60.2263 307.407 59.4593 306.853 58.8882C306.307 58.3172 305.587 58.0317 304.692 58.0317C304.087 58.0317 303.542 58.1851 303.056 58.4919C302.579 58.7902 302.199 59.2121 301.918 59.7575C301.637 60.2945 301.496 60.9252 301.496 61.6496V73.4365H296.05ZM334.486 73.8073C333.233 73.8073 332.116 73.5899 331.136 73.1553C330.156 72.7121 329.381 72.0601 328.809 71.1993C328.247 70.33 327.966 69.2476 327.966 67.9521C327.966 66.8612 328.166 65.945 328.567 65.2036C328.967 64.4621 329.513 63.8655 330.203 63.4138C330.893 62.9621 331.677 62.6212 332.555 62.3911C333.442 62.161 334.371 61.999 335.342 61.9053C336.484 61.786 337.405 61.6752 338.104 61.5729C338.802 61.4621 339.309 61.3002 339.625 61.0871C339.94 60.874 340.098 60.5587 340.098 60.1411V60.0644C340.098 59.2547 339.842 58.6283 339.331 58.1851C338.828 57.7419 338.112 57.5203 337.183 57.5203C336.203 57.5203 335.423 57.7377 334.844 58.1723C334.264 58.5985 333.881 59.1354 333.693 59.7831L328.656 59.374C328.912 58.1808 329.415 57.1496 330.165 56.2803C330.915 55.4024 331.882 54.7291 333.067 54.2604C334.26 53.7831 335.64 53.5445 337.209 53.5445C338.3 53.5445 339.344 53.6723 340.341 53.928C341.346 54.1837 342.237 54.58 343.013 55.1169C343.797 55.6539 344.415 56.3442 344.866 57.1879C345.318 58.0232 345.544 59.0246 345.544 60.1922V73.4365H340.379V70.7135H340.226C339.91 71.3271 339.488 71.8683 338.96 72.3371C338.432 72.7973 337.797 73.1595 337.055 73.4237C336.314 73.6794 335.457 73.8073 334.486 73.8073ZM336.045 70.0487C336.846 70.0487 337.554 69.8911 338.167 69.5757C338.781 69.2519 339.263 68.8172 339.612 68.2718C339.961 67.7263 340.136 67.1084 340.136 66.4181V64.3343C339.966 64.445 339.731 64.5473 339.433 64.6411C339.143 64.7263 338.815 64.8073 338.449 64.884C338.082 64.9521 337.716 65.0161 337.349 65.0757C336.983 65.1269 336.65 65.1737 336.352 65.2164C335.713 65.3101 335.155 65.4593 334.677 65.6638C334.2 65.8683 333.829 66.1453 333.565 66.4948C333.301 66.8357 333.169 67.2618 333.169 67.7732C333.169 68.5146 333.437 69.0814 333.974 69.4735C334.52 69.857 335.21 70.0487 336.045 70.0487ZM349.769 73.4365V53.8002H355.049V57.2263H355.253C355.611 56.0075 356.212 55.0871 357.056 54.4649C357.9 53.8343 358.871 53.5189 359.971 53.5189C360.243 53.5189 360.537 53.536 360.853 53.57C361.168 53.6041 361.445 53.651 361.684 53.7107V58.5431C361.428 58.4664 361.074 58.3982 360.623 58.3385C360.171 58.2789 359.758 58.249 359.383 58.249C358.581 58.249 357.866 58.4237 357.235 58.7732C356.613 59.1141 356.118 59.5914 355.752 60.205C355.394 60.8186 355.215 61.526 355.215 62.3271V73.4365H349.769ZM375.928 53.8002V57.8911H364.103V53.8002H375.928ZM366.788 49.0956H372.234V67.4024C372.234 67.9053 372.311 68.2973 372.464 68.5786C372.617 68.8513 372.83 69.0431 373.103 69.1539C373.384 69.2646 373.708 69.32 374.075 69.32C374.33 69.32 374.586 69.2987 374.842 69.2561C375.097 69.205 375.294 69.1666 375.43 69.1411L376.286 73.1936C376.014 73.2789 375.63 73.3769 375.136 73.4877C374.642 73.607 374.041 73.6794 373.333 73.705C372.021 73.7561 370.87 73.5814 369.882 73.1808C368.901 72.7803 368.139 72.1581 367.593 71.3144C367.048 70.4706 366.779 69.4053 366.788 68.1183V49.0956ZM387.91 73.4365V47.2547H393.446V68.8726H404.67V73.4365H387.91ZM417.106 73.82C415.12 73.82 413.403 73.3982 411.954 72.5544C410.514 71.7021 409.401 70.5175 408.617 69.0004C407.833 67.4749 407.441 65.7064 407.441 63.695C407.441 61.6666 407.833 59.8939 408.617 58.3769C409.401 56.8513 410.514 55.6666 411.954 54.8229C413.403 53.9706 415.12 53.5445 417.106 53.5445C419.092 53.5445 420.805 53.9706 422.245 54.8229C423.694 55.6666 424.811 56.8513 425.595 58.3769C426.379 59.8939 426.771 61.6666 426.771 63.695C426.771 65.7064 426.379 67.4749 425.595 69.0004C424.811 70.5175 423.694 71.7021 422.245 72.5544C420.805 73.3982 419.092 73.82 417.106 73.82ZM417.132 69.6013C418.035 69.6013 418.789 69.3456 419.394 68.8343C419.999 68.3144 420.455 67.607 420.762 66.7121C421.078 65.8172 421.235 64.7987 421.235 63.6567C421.235 62.5146 421.078 61.4962 420.762 60.6013C420.455 59.7064 419.999 58.999 419.394 58.4791C418.789 57.9593 418.035 57.6993 417.132 57.6993C416.22 57.6993 415.453 57.9593 414.83 58.4791C414.217 58.999 413.752 59.7064 413.437 60.6013C413.13 61.4962 412.977 62.5146 412.977 63.6567C412.977 64.7987 413.13 65.8172 413.437 66.7121C413.752 67.607 414.217 68.3144 414.83 68.8343C415.453 69.3456 416.22 69.6013 417.132 69.6013ZM439.159 81.2093C437.394 81.2093 435.882 80.9664 434.62 80.4806C433.367 80.0033 432.37 79.3513 431.629 78.5246C430.887 77.6979 430.406 76.7689 430.184 75.7377L435.221 75.0601C435.374 75.4521 435.617 75.8186 435.95 76.1595C436.282 76.5004 436.721 76.7732 437.267 76.9777C437.82 77.1908 438.494 77.2973 439.286 77.2973C440.471 77.2973 441.447 77.0075 442.214 76.428C442.99 75.857 443.377 74.8982 443.377 73.5516V69.9593H443.147C442.909 70.5047 442.551 71.0203 442.073 71.5061C441.596 71.9919 440.982 72.3882 440.232 72.695C439.482 73.0019 438.588 73.1553 437.548 73.1553C436.073 73.1553 434.731 72.8144 433.521 72.1325C432.319 71.4422 431.36 70.3896 430.644 68.9749C429.937 67.5516 429.583 65.7533 429.583 63.58C429.583 61.3556 429.945 59.4976 430.67 58.0061C431.394 56.5146 432.357 55.3982 433.559 54.6567C434.769 53.9152 436.095 53.5445 437.535 53.5445C438.634 53.5445 439.555 53.732 440.296 54.107C441.038 54.4735 441.634 54.9337 442.086 55.4877C442.546 56.0331 442.9 56.57 443.147 57.0985H443.352V53.8002H448.759V73.6283C448.759 75.2987 448.35 76.6965 447.532 77.8215C446.714 78.9465 445.58 79.7902 444.132 80.3527C442.691 80.9237 441.034 81.2093 439.159 81.2093ZM439.274 69.0644C440.151 69.0644 440.893 68.847 441.498 68.4124C442.112 67.9692 442.58 67.3385 442.904 66.5203C443.237 65.6936 443.403 64.705 443.403 63.5544C443.403 62.4039 443.241 61.4067 442.917 60.5629C442.593 59.7107 442.124 59.0502 441.511 58.5814C440.897 58.1127 440.151 57.8783 439.274 57.8783C438.379 57.8783 437.624 58.1212 437.011 58.607C436.397 59.0843 435.933 59.749 435.617 60.6013C435.302 61.4536 435.144 62.4379 435.144 63.5544C435.144 64.6879 435.302 65.6681 435.617 66.4948C435.941 67.3129 436.406 67.9479 437.011 68.3996C437.624 68.8428 438.379 69.0644 439.274 69.0644ZM453.093 73.4365V53.8002H458.539V73.4365H453.093ZM455.829 51.2689C455.019 51.2689 454.325 51.0004 453.745 50.4635C453.174 49.9181 452.889 49.2661 452.889 48.5075C452.889 47.7575 453.174 47.1141 453.745 46.5771C454.325 46.0317 455.019 45.759 455.829 45.759C456.639 45.759 457.329 46.0317 457.9 46.5771C458.48 47.1141 458.769 47.7575 458.769 48.5075C458.769 49.2661 458.48 49.9181 457.9 50.4635C457.329 51.0004 456.639 51.2689 455.829 51.2689ZM479.24 59.3996L474.254 59.7064C474.169 59.2803 473.986 58.8968 473.704 58.5558C473.423 58.2064 473.052 57.9294 472.592 57.7249C472.14 57.5118 471.599 57.4053 470.969 57.4053C470.125 57.4053 469.413 57.5843 468.834 57.9422C468.254 58.2916 467.964 58.7604 467.964 59.3485C467.964 59.8172 468.152 60.2135 468.527 60.5374C468.902 60.8612 469.545 61.1212 470.457 61.3172L474.011 62.0331C475.92 62.4252 477.344 63.0558 478.281 63.9252C479.219 64.7945 479.687 65.9365 479.687 67.3513C479.687 68.6382 479.308 69.7675 478.55 70.7391C477.8 71.7107 476.768 72.4692 475.456 73.0146C474.152 73.5516 472.648 73.82 470.943 73.82C468.344 73.82 466.273 73.2789 464.73 72.1965C463.196 71.1056 462.297 69.6226 462.032 67.7476L467.389 67.4664C467.551 68.259 467.943 68.8641 468.565 69.2817C469.187 69.6908 469.984 69.8953 470.956 69.8953C471.91 69.8953 472.677 69.7121 473.257 69.3456C473.845 68.9706 474.143 68.4891 474.152 67.901C474.143 67.4067 473.934 67.0019 473.525 66.6865C473.116 66.3627 472.486 66.1155 471.633 65.945L468.233 65.2675C466.315 64.884 464.888 64.2192 463.95 63.2732C463.021 62.3271 462.557 61.1212 462.557 59.6553C462.557 58.3939 462.898 57.3073 463.579 56.3953C464.27 55.4834 465.237 54.7803 466.481 54.286C467.734 53.7916 469.2 53.5445 470.879 53.5445C473.359 53.5445 475.311 54.0686 476.734 55.1169C478.166 56.1652 479.001 57.5928 479.24 59.3996ZM493.561 53.8002V57.8911H481.736V53.8002H493.561ZM484.421 49.0956H489.867V67.4024C489.867 67.9053 489.943 68.2973 490.097 68.5786C490.25 68.8513 490.463 69.0431 490.736 69.1539C491.017 69.2646 491.341 69.32 491.708 69.32C491.963 69.32 492.219 69.2987 492.475 69.2561C492.73 69.205 492.926 69.1666 493.063 69.1411L493.919 73.1936C493.646 73.2789 493.263 73.3769 492.769 73.4877C492.274 73.607 491.673 73.6794 490.966 73.705C489.654 73.7561 488.503 73.5814 487.514 73.1808C486.534 72.7803 485.771 72.1581 485.226 71.3144C484.681 70.4706 484.412 69.4053 484.421 68.1183V49.0956ZM497.109 73.4365V53.8002H502.555V73.4365H497.109ZM499.845 51.2689C499.035 51.2689 498.34 51.0004 497.761 50.4635C497.19 49.9181 496.904 49.2661 496.904 48.5075C496.904 47.7575 497.19 47.1141 497.761 46.5771C498.34 46.0317 499.035 45.759 499.845 45.759C500.654 45.759 501.345 46.0317 501.916 46.5771C502.495 47.1141 502.785 47.7575 502.785 48.5075C502.785 49.2661 502.495 49.9181 501.916 50.4635C501.345 51.0004 500.654 51.2689 499.845 51.2689ZM515.79 73.82C513.778 73.82 512.048 73.3939 510.599 72.5416C509.159 71.6808 508.051 70.4877 507.275 68.9621C506.508 67.4365 506.125 65.6808 506.125 63.695C506.125 61.6837 506.513 59.9195 507.288 58.4024C508.072 56.8769 509.184 55.6879 510.625 54.8357C512.065 53.9749 513.778 53.5445 515.764 53.5445C517.477 53.5445 518.977 53.8556 520.264 54.4777C521.551 55.0999 522.569 55.9735 523.319 57.0985C524.069 58.2235 524.483 59.5445 524.559 61.0615H519.42C519.275 60.0814 518.892 59.2931 518.27 58.6965C517.656 58.0914 516.851 57.7888 515.854 57.7888C515.01 57.7888 514.273 58.0189 513.642 58.4791C513.02 58.9308 512.534 59.5914 512.184 60.4607C511.835 61.33 511.66 62.3825 511.66 63.6183C511.66 64.8712 511.831 65.9365 512.172 66.8144C512.521 67.6922 513.011 68.3612 513.642 68.8215C514.273 69.2817 515.01 69.5118 515.854 69.5118C516.476 69.5118 517.034 69.384 517.528 69.1283C518.031 68.8726 518.444 68.5019 518.768 68.0161C519.101 67.5218 519.318 66.9294 519.42 66.2391H524.559C524.474 67.7391 524.065 69.0601 523.332 70.2021C522.608 71.3357 521.606 72.222 520.328 72.8612C519.05 73.5004 517.537 73.82 515.79 73.82ZM544.384 59.3996L539.399 59.7064C539.313 59.2803 539.13 58.8968 538.849 58.5558C538.568 58.2064 538.197 57.9294 537.737 57.7249C537.285 57.5118 536.744 57.4053 536.113 57.4053C535.269 57.4053 534.558 57.5843 533.978 57.9422C533.399 58.2916 533.109 58.7604 533.109 59.3485C533.109 59.8172 533.296 60.2135 533.671 60.5374C534.046 60.8612 534.69 61.1212 535.602 61.3172L539.156 62.0331C541.065 62.4252 542.488 63.0558 543.426 63.9252C544.363 64.7945 544.832 65.9365 544.832 67.3513C544.832 68.6382 544.453 69.7675 543.694 70.7391C542.944 71.7107 541.913 72.4692 540.6 73.0146C539.296 73.5516 537.792 73.82 536.088 73.82C533.488 73.82 531.417 73.2789 529.874 72.1965C528.34 71.1056 527.441 69.6226 527.177 67.7476L532.534 67.4664C532.695 68.259 533.088 68.8641 533.71 69.2817C534.332 69.6908 535.129 69.8953 536.1 69.8953C537.055 69.8953 537.822 69.7121 538.401 69.3456C538.99 68.9706 539.288 68.4891 539.296 67.901C539.288 67.4067 539.079 67.0019 538.67 66.6865C538.261 66.3627 537.63 66.1155 536.778 65.945L533.377 65.2675C531.46 64.884 530.032 64.2192 529.095 63.2732C528.166 62.3271 527.701 61.1212 527.701 59.6553C527.701 58.3939 528.042 57.3073 528.724 56.3953C529.414 55.4834 530.382 54.7803 531.626 54.286C532.879 53.7916 534.345 53.5445 536.024 53.5445C538.504 53.5445 540.455 54.0686 541.879 55.1169C543.311 56.1652 544.146 57.5928 544.384 59.3996Z" fill="black"/>
<path d="M119.513 17.1672C119.513 17.1672 119.674 17.1589 119.962 17.1619C120.106 17.163 120.283 17.165 120.486 17.1751C120.71 17.2 120.965 17.2401 121.254 17.293C121.556 17.3443 121.846 17.4082 122.172 17.4878C122.502 17.5637 122.845 17.6638 123.206 17.7849C123.936 18.02 124.718 18.3511 125.534 18.7766C125.743 18.8793 125.936 19.0013 126.144 19.1192C126.349 19.2391 126.559 19.3627 126.761 19.4983C127.165 19.7693 127.587 20.0555 127.983 20.3819C128.408 20.7168 128.811 21.0721 129.191 21.4461C129.275 21.3853 129.359 21.3238 129.445 21.2642C129.591 21.1658 129.739 21.0696 129.888 20.9754C129.883 20.8419 129.878 20.7084 129.873 20.5735C129.878 20.3943 129.866 20.2155 129.861 20.0357C129.855 19.8559 129.853 19.6754 129.836 19.4957C129.821 19.3161 129.81 19.1354 129.807 18.9531L129.767 18.4097C129.757 18.2278 129.733 18.0483 129.715 17.8677C129.699 17.6866 129.693 17.5035 129.669 17.324L129.544 16.2479C129.457 15.5347 129.351 14.8348 129.243 14.1586C129.186 13.8214 129.135 13.4883 129.073 13.1666C129.018 12.8416 128.959 12.5268 128.898 12.2226L128.815 11.7707C128.788 11.6225 128.751 11.4819 128.726 11.3384C128.673 11.0534 128.617 10.7826 128.562 10.526C128.511 10.2691 128.456 10.0241 128.415 9.79943C128.371 9.57868 128.327 9.37456 128.294 9.18359C128.275 9.08818 128.262 8.99958 128.241 8.91188L128.185 8.65892L128.099 8.25914C128.074 8.15163 128.062 8.06454 128.051 8.00754L128.015 7.79631C127.981 7.59543 128.014 7.39019 128.112 7.20591C128.21 7.02162 128.368 6.86633 128.565 6.7592C128.763 6.65206 128.993 6.59775 129.225 6.60296C129.458 6.60818 129.684 6.67269 129.875 6.78854L130.184 6.97558L130.55 7.20344L130.781 7.34829C130.862 7.40227 130.95 7.46759 131.042 7.53276L131.657 7.97639C131.882 8.13818 132.099 8.32037 132.346 8.51406C132.833 8.90356 133.376 9.35732 133.922 9.8891C134.528 10.4569 135.1 11.0527 135.634 11.6737C135.928 12.0165 136.215 12.3635 136.496 12.7146C136.788 13.0856 137.066 13.4655 137.327 13.8535C137.48 14.0753 137.629 14.2987 137.776 14.5236C137.815 14.3913 137.856 14.2593 137.9 14.1282C138.03 13.6333 138.198 13.1471 138.322 12.6575L138.534 11.9305C138.596 11.6884 138.668 11.4483 138.734 11.2097C138.876 10.7334 138.99 10.2612 139.128 9.79974C139.255 9.33781 139.377 8.88451 139.505 8.44315L139.681 7.78981C139.742 7.5751 139.809 7.36326 139.861 7.15566C139.972 6.74016 140.092 6.33796 140.2 5.9533C140.305 5.56895 140.414 5.20062 140.517 4.85225C140.608 4.52358 140.705 4.196 140.806 3.86958L141.065 3.03298C141.235 2.52812 141.356 2.09417 141.456 1.81006C141.555 1.52232 141.616 1.36764 141.616 1.36764C141.661 1.25659 141.739 1.15808 141.842 1.08264C141.945 1.00719 142.07 0.957637 142.203 0.939259C142.336 0.92088 142.473 0.934369 142.598 0.978285C142.723 1.0222 142.832 1.0949 142.913 1.18862C142.913 1.18862 143.026 1.31925 143.222 1.56632C143.415 1.81762 143.696 2.16599 144.008 2.6645C144.159 2.91036 144.342 3.18781 144.512 3.4884C144.696 3.81172 144.874 4.13776 145.045 4.46638C145.224 4.81883 145.399 5.19744 145.581 5.59994C145.761 6.00259 145.925 6.42989 146.1 6.87911C146.266 7.32864 146.419 7.80084 146.575 8.2927C146.714 8.78532 146.861 9.29775 146.982 9.82862C147.043 10.0978 147.101 10.3677 147.154 10.6382C147.214 10.9151 147.263 11.1934 147.304 11.4729C147.346 11.7552 147.395 12.0416 147.433 12.331L147.526 13.2112C147.585 13.8034 147.607 14.4116 147.627 15.0271C147.633 15.3356 147.629 15.647 147.622 15.9597C147.619 16.1968 147.612 16.4359 147.6 16.6758C147.85 16.6819 148.099 16.6876 148.346 16.6989C148.997 16.7159 149.633 16.7723 150.249 16.819C150.865 16.8757 151.462 16.9469 152.037 17.0216C152.324 17.0624 152.606 17.1066 152.882 17.1521C153.158 17.1979 153.428 17.2365 153.692 17.2912C154.22 17.3943 154.723 17.4955 155.199 17.6075C155.648 17.7158 156.096 17.8307 156.541 17.9523C156.932 18.0664 157.321 18.1851 157.707 18.3083C158.066 18.4273 158.4 18.5503 158.695 18.6541C158.991 18.7639 159.254 18.8664 159.469 18.9603L160.024 19.2092C160.325 19.3501 160.485 19.4319 160.485 19.4319C160.603 19.4919 160.699 19.579 160.763 19.6837C160.827 19.7884 160.856 19.9066 160.848 20.025C160.84 20.1435 160.794 20.2576 160.716 20.3546C160.637 20.4517 160.53 20.5279 160.405 20.5749C160.405 20.5749 160.234 20.639 159.916 20.7468L159.33 20.9346C159.096 20.9997 158.842 21.0893 158.559 21.1804L157.628 21.4712C157.264 21.5849 156.899 21.6955 156.533 21.8031C156.145 21.9195 155.735 22.047 155.305 22.1704C154.876 22.2952 154.427 22.4369 153.963 22.5674L151.009 23.4439L150.227 23.6792C149.961 23.7548 149.697 23.8345 149.434 23.9184C149.168 24.0034 148.898 24.0785 148.628 24.1593C148.36 24.2464 148.09 24.3321 147.817 24.4134L147.432 24.5306C147.818 24.6234 148.201 24.7237 148.582 24.8315C149.594 25.109 150.542 25.4469 151.419 25.7832L152.06 26.0485C152.27 26.1358 152.476 26.2186 152.673 26.3162C153.07 26.5046 153.451 26.6789 153.807 26.8659C154.527 27.2192 155.155 27.5908 155.699 27.9281C155.97 28.1008 156.222 28.25 156.451 28.4102L157.081 28.8518L157.344 29.0399L157.554 29.2118L157.885 29.484C158.064 29.6326 158.157 29.7161 158.157 29.7161C158.318 29.8594 158.429 30.039 158.478 30.2346C158.528 30.4302 158.513 30.6339 158.436 30.8227C158.36 31.0114 158.224 31.1777 158.044 31.3026C157.865 31.4274 157.649 31.5059 157.421 31.5292L157.178 31.5538C157.11 31.56 157.008 31.5729 156.878 31.5815C156.748 31.5919 156.588 31.6042 156.402 31.6129L156.102 31.6287C156 31.6349 155.895 31.6451 155.783 31.6542C155.559 31.676 155.319 31.6893 155.061 31.7076C154.796 31.7312 154.51 31.7433 154.209 31.7638L153.261 31.8233C152.931 31.8419 152.589 31.8617 152.233 31.8884C151.881 31.9081 151.516 31.9332 151.142 31.9609L150.001 32.0411C149.225 32.1042 148.426 32.1641 147.615 32.2422C147.209 32.2812 146.802 32.3236 146.393 32.3587L145.778 32.4322C145.676 32.4439 145.574 32.4497 145.471 32.4603L145.164 32.496C144.475 32.5746 143.79 32.6683 143.111 32.7645C144.098 33.281 144.986 33.8541 145.752 34.4673C146.162 34.78 146.529 35.1189 146.877 35.4441C147.051 35.6063 147.212 35.7774 147.368 35.944C147.523 36.1133 147.68 36.2685 147.818 36.4404C148.381 37.109 148.834 37.7561 149.171 38.3677C149.344 38.6692 149.491 38.9574 149.609 39.2366C149.731 39.5119 149.832 39.7584 149.919 40.0153C150.007 40.2611 150.077 40.4793 150.127 40.6709C150.153 40.8218 150.174 40.9732 150.192 41.1251C150.223 41.3749 150.228 41.5155 150.228 41.5155C150.233 41.641 150.218 41.7664 150.183 41.8882C150.134 42.0552 150.048 42.2122 149.93 42.3502C149.811 42.4883 149.663 42.6046 149.493 42.6925C149.323 42.7805 149.135 42.8384 148.939 42.863C148.744 42.8875 148.544 42.8782 148.353 42.8356L148.352 42.8355C148.352 42.8355 148.196 42.8007 147.922 42.7216C147.756 42.6748 147.591 42.6243 147.427 42.5703C147.227 42.5296 147.028 42.4867 146.829 42.4416C146.622 42.3985 146.364 42.34 146.104 42.2763L145.701 42.1782C145.557 42.1472 145.413 42.1144 145.269 42.0801C144.687 41.9407 144.037 41.8035 143.365 41.6553L142.327 41.44C141.97 41.3743 141.617 41.2946 141.251 41.2311C140.528 41.0874 139.784 40.9634 139.047 40.8461C138.312 40.72 137.575 40.637 136.863 40.5485C136.148 40.4611 135.456 40.4123 134.79 40.376L134.541 40.3614C134.458 40.3552 134.375 40.3479 134.294 40.3506C134.132 40.3508 133.97 40.3435 133.808 40.3346C133.492 40.3444 133.169 40.3202 132.861 40.337C132.545 40.3299 132.244 40.3606 131.931 40.3624L131.471 40.3964C131.394 40.4031 131.315 40.4037 131.237 40.4081L131.008 40.4356C130.856 40.4568 130.696 40.4608 130.54 40.4787C130.386 40.5058 130.23 40.5279 130.074 40.5451C129.996 40.5556 129.915 40.5617 129.837 40.5755L129.603 40.619C129.447 40.6476 129.289 40.6759 129.126 40.6978C128.848 40.7637 128.56 40.821 128.273 40.8841C128.209 40.9302 128.143 40.9748 128.075 41.0153C127.694 41.2554 127.305 41.485 126.908 41.7039C126.543 41.8811 126.173 42.0488 125.797 42.2066L125.539 42.3143C125.454 42.3492 125.365 42.3748 125.28 42.4042C125.111 42.4617 124.946 42.5137 124.788 42.5621C124.5 42.6517 124.208 42.733 123.914 42.8058C123.673 42.8576 123.429 42.9027 123.185 42.9409C122.973 42.9772 122.789 43.0006 122.641 43.0183C122.344 43.0546 122.18 43.0624 122.18 43.0624C122.042 43.0685 121.904 43.0581 121.769 43.0313C121.478 42.9723 121.215 42.8363 121.016 42.6418C120.84 42.529 120.696 42.3831 120.593 42.215C120.491 42.0468 120.433 41.8607 120.424 41.6705C120.424 41.6705 120.418 41.5276 120.431 41.2666C120.438 41.1063 120.45 40.9463 120.467 40.7867C120.488 40.5705 120.516 40.355 120.552 40.1404C120.607 39.878 120.672 39.6172 120.747 39.3584C120.787 39.2163 120.83 39.0681 120.88 38.9157C120.905 38.8398 120.926 38.7595 120.958 38.6827L121.056 38.4485C121.2 38.1069 121.356 37.7693 121.524 37.4359C121.736 37.0702 121.961 36.7104 122.198 36.3569C122.239 36.2936 122.282 36.2319 122.329 36.172C122.373 35.9169 122.411 35.6618 122.46 35.4139C122.471 35.2729 122.485 35.1321 122.505 34.9919L122.532 34.7846C122.54 34.7158 122.539 34.645 122.544 34.5757C122.549 34.4385 122.559 34.3014 122.575 34.1648C122.581 34.0278 122.57 33.8882 122.58 33.7544L122.589 33.553C122.587 33.4848 122.58 33.416 122.58 33.3487L122.575 32.9462C122.547 32.6738 122.554 32.4096 122.516 32.1355C122.506 31.867 122.447 31.5886 122.428 31.3134C122.402 31.1731 122.379 31.0331 122.363 30.8923C122.359 30.8223 122.343 30.7512 122.327 30.6794L122.287 30.4644C122.182 29.8895 122.06 29.2935 121.892 28.6808C121.723 28.0715 121.558 27.4394 121.344 26.8127C121.14 26.1846 120.928 25.5502 120.695 24.9363C120.587 24.6239 120.463 24.3256 120.354 24.0215L120.009 23.1405C119.776 22.5713 119.557 22.0198 119.342 21.5282C119.289 21.405 119.238 21.283 119.189 21.1621L119.039 20.8218C118.948 20.6185 118.863 20.4138 118.781 20.2077C118.706 20.0268 118.637 19.8577 118.577 19.7012C118.487 19.5425 118.415 19.4009 118.357 19.2854C118.241 19.0554 118.186 18.9231 118.186 18.9231L118.183 18.9166C118.136 18.8001 118.108 18.6784 118.1 18.5551C118.088 18.383 118.115 18.2106 118.18 18.0477C118.244 17.8847 118.345 17.7345 118.476 17.6056C118.608 17.4767 118.767 17.3716 118.944 17.2964C119.122 17.2212 119.315 17.1773 119.513 17.1672Z" fill="#2BA52E"/>
<path d="M87.4521 71.4151L88.1541 72.0275C97.1708 79.8927 111.789 79.8927 120.806 72.0275L130.297 63.7489C139.313 55.8836 139.313 43.1317 130.297 35.2664L129.595 34.6541C120.578 26.7888 105.959 26.7888 96.9427 34.6541L87.4521 42.9327C78.4355 50.7978 78.4355 63.5499 87.4521 71.4151Z" fill="#FFD469"/>
<path d="M126.028 47.5297H129.977C130.06 47.5297 130.143 47.5154 130.22 47.4875C130.298 47.4596 130.368 47.4187 130.427 47.3672C130.486 47.3156 130.533 47.2544 130.565 47.187C130.597 47.1196 130.613 47.0474 130.613 46.9745V43.5302C130.613 43.4573 130.597 43.3851 130.565 43.3177C130.533 43.2504 130.486 43.1891 130.427 43.1376C130.368 43.086 130.298 43.0451 130.22 43.0172C130.143 42.9893 130.06 42.975 129.977 42.975H126.028C125.945 42.975 125.862 42.9893 125.785 43.0172C125.708 43.0451 125.637 43.086 125.578 43.1376C125.519 43.1891 125.472 43.2504 125.44 43.3177C125.408 43.3851 125.392 43.4573 125.392 43.5302V46.9745C125.392 47.0474 125.408 47.1196 125.44 47.187C125.472 47.2544 125.519 47.3156 125.578 47.3672C125.637 47.4187 125.708 47.4596 125.785 47.4875C125.862 47.5154 125.945 47.5297 126.028 47.5297ZM116.388 39.1203V35.676C116.388 35.6031 116.404 35.5309 116.436 35.4635C116.468 35.3961 116.515 35.3349 116.574 35.2834C116.633 35.2318 116.704 35.1909 116.781 35.163C116.858 35.1351 116.941 35.1208 117.024 35.1208H120.973C121.056 35.1208 121.139 35.1351 121.216 35.163C121.294 35.1909 121.364 35.2318 121.423 35.2834C121.482 35.3349 121.529 35.3961 121.561 35.4635C121.593 35.5309 121.609 35.6031 121.609 35.676V39.1203C121.609 39.1932 121.593 39.2654 121.561 39.3328C121.529 39.4002 121.482 39.4614 121.423 39.513C121.364 39.5645 121.294 39.6054 121.216 39.6333C121.139 39.6612 121.056 39.6755 120.973 39.6755H117.024C116.941 39.6755 116.858 39.6612 116.781 39.6333C116.704 39.6054 116.633 39.5645 116.574 39.513C116.515 39.4614 116.468 39.4002 116.436 39.3328C116.404 39.2654 116.388 39.1932 116.388 39.1203ZM119.803 67.5581V64.1139C119.803 64.0409 119.819 63.9687 119.851 63.9014C119.883 63.834 119.93 63.7728 119.989 63.7212C120.048 63.6696 120.118 63.6287 120.196 63.6008C120.273 63.573 120.356 63.5586 120.439 63.5587H124.388C124.471 63.5586 124.554 63.573 124.631 63.6008C124.709 63.6287 124.779 63.6696 124.838 63.7212C124.897 63.7728 124.944 63.834 124.976 63.9014C125.008 63.9687 125.024 64.0409 125.024 64.1139V67.5581C125.024 67.631 125.008 67.7032 124.976 67.7706C124.944 67.838 124.897 67.8992 124.838 67.9508C124.779 68.0024 124.709 68.0433 124.631 68.0711C124.554 68.099 124.471 68.1134 124.388 68.1133H120.439C120.356 68.1134 120.273 68.099 120.196 68.0711C120.118 68.0433 120.048 68.0024 119.989 67.9508C119.93 67.8992 119.883 67.838 119.851 67.7706C119.819 67.7032 119.803 67.631 119.803 67.5581ZM110.799 59.7041V56.2598C110.799 56.1869 110.815 56.1147 110.847 56.0473C110.879 55.9799 110.926 55.9187 110.985 55.8671C111.044 55.8156 111.114 55.7747 111.192 55.7468C111.269 55.7189 111.352 55.7046 111.435 55.7046H115.384C115.467 55.7046 115.55 55.7189 115.627 55.7468C115.705 55.7747 115.775 55.8156 115.834 55.8671C115.893 55.9187 115.94 55.9799 115.972 56.0473C116.004 56.1147 116.02 56.1869 116.02 56.2598V59.7041C116.02 59.777 116.004 59.8492 115.972 59.9166C115.94 59.984 115.893 60.0452 115.834 60.0967C115.775 60.1483 115.705 60.1892 115.627 60.2171C115.55 60.245 115.467 60.2593 115.384 60.2593H111.435C111.352 60.2593 111.269 60.245 111.192 60.2171C111.114 60.1892 111.044 60.1483 110.985 60.0967C110.926 60.0452 110.879 59.984 110.847 59.9166C110.815 59.8492 110.799 59.777 110.799 59.7041ZM101.795 51.8498V48.4056C101.795 48.3327 101.811 48.2605 101.843 48.1931C101.875 48.1257 101.922 48.0645 101.981 48.0129C102.04 47.9614 102.11 47.9205 102.188 47.8926C102.265 47.8647 102.348 47.8504 102.431 47.8504H106.38C106.463 47.8504 106.546 47.8647 106.623 47.8926C106.701 47.9205 106.771 47.9614 106.83 48.0129C106.889 48.0645 106.936 48.1257 106.968 48.1931C107 48.2605 107.016 48.3327 107.016 48.4056V51.8498C107.016 51.9228 107 51.995 106.968 52.0624C106.936 52.1298 106.889 52.191 106.83 52.2425C106.771 52.2941 106.701 52.335 106.623 52.3629C106.546 52.3908 106.463 52.4051 106.38 52.4051H102.431C102.348 52.4051 102.265 52.3908 102.188 52.3629C102.11 52.335 102.04 52.2941 101.981 52.2425C101.922 52.191 101.875 52.1298 101.843 52.0624C101.811 51.995 101.795 51.9228 101.795 51.8498ZM92.7911 43.9957V40.5514C92.791 40.4785 92.8074 40.4063 92.8394 40.3389C92.8714 40.2715 92.9183 40.2103 92.9774 40.1587C93.0365 40.1072 93.1067 40.0663 93.1839 40.0384C93.2612 40.0105 93.344 39.9962 93.4276 39.9962H97.376C97.4596 39.9962 97.5424 40.0105 97.6196 40.0384C97.6969 40.0663 97.767 40.1072 97.8262 40.1587C97.8853 40.2103 97.9322 40.2715 97.9641 40.3389C97.9961 40.4063 98.0125 40.4785 98.0125 40.5514V43.9957C98.0125 44.0686 97.9961 44.1408 97.9641 44.2082C97.9322 44.2755 97.8853 44.3368 97.8262 44.3883C97.767 44.4399 97.6969 44.4808 97.6196 44.5087C97.5424 44.5366 97.4596 44.5509 97.376 44.5509H93.4276C93.344 44.5509 93.2612 44.5366 93.1839 44.5087C93.1067 44.4808 93.0365 44.4399 92.9774 44.3883C92.9183 44.3368 92.8714 44.2755 92.8394 44.2082C92.8074 44.1408 92.791 44.0686 92.7911 43.9957ZM122.191 57.6205V54.1763C122.191 54.1033 122.208 54.0311 122.24 53.9637C122.272 53.8964 122.319 53.8351 122.378 53.7836C122.437 53.732 122.507 53.6911 122.584 53.6632C122.662 53.6353 122.744 53.621 122.828 53.621H126.776C126.86 53.621 126.943 53.6353 127.02 53.6632C127.097 53.6911 127.167 53.732 127.227 53.7836C127.286 53.8351 127.333 53.8964 127.364 53.9637C127.396 54.0311 127.413 54.1033 127.413 54.1763V57.6205C127.413 57.6934 127.396 57.7656 127.364 57.833C127.333 57.9004 127.286 57.9616 127.227 58.0132C127.167 58.0647 127.097 58.1056 127.02 58.1335C126.943 58.1614 126.86 58.1757 126.776 58.1757H122.828C122.744 58.1757 122.662 58.1614 122.584 58.1335C122.507 58.1056 122.437 58.0647 122.378 58.0132C122.319 57.9616 122.272 57.9004 122.24 57.833C122.208 57.7656 122.191 57.6934 122.191 57.6205ZM113.187 49.7663V46.322C113.187 46.2491 113.204 46.1769 113.236 46.1095C113.268 46.0421 113.315 45.9809 113.374 45.9294C113.433 45.8778 113.503 45.8369 113.58 45.809C113.658 45.7811 113.74 45.7668 113.824 45.7668H117.772C117.856 45.7668 117.939 45.7811 118.016 45.809C118.093 45.8369 118.163 45.8778 118.223 45.9294C118.282 45.9809 118.329 46.0421 118.36 46.1095C118.392 46.1769 118.409 46.2491 118.409 46.322V49.7663C118.409 49.8392 118.392 49.9114 118.36 49.9788C118.329 50.0462 118.282 50.1074 118.223 50.159C118.163 50.2105 118.093 50.2514 118.016 50.2793C117.939 50.3072 117.856 50.3215 117.772 50.3215H113.824C113.74 50.3215 113.658 50.3072 113.58 50.2793C113.503 50.2514 113.433 50.2105 113.374 50.159C113.315 50.1074 113.268 50.0462 113.236 49.9788C113.204 49.9114 113.187 49.8392 113.187 49.7663ZM104.183 41.9121V38.4678C104.183 38.3949 104.2 38.3227 104.232 38.2553C104.264 38.1879 104.311 38.1267 104.37 38.0752C104.429 38.0236 104.499 37.9827 104.576 37.9548C104.654 37.9269 104.736 37.9126 104.82 37.9126H108.768C108.852 37.9126 108.935 37.9269 109.012 37.9548C109.089 37.9827 109.159 38.0236 109.219 38.0752C109.278 38.1267 109.325 38.1879 109.357 38.2553C109.388 38.3227 109.405 38.3949 109.405 38.4678V41.9121C109.405 41.985 109.388 42.0572 109.357 42.1246C109.325 42.192 109.278 42.2532 109.219 42.3048C109.159 42.3563 109.089 42.3972 109.012 42.4251C108.935 42.453 108.852 42.4673 108.768 42.4673H104.82C104.736 42.4673 104.654 42.453 104.576 42.4251C104.499 42.3972 104.429 42.3563 104.37 42.3048C104.311 42.2532 104.264 42.192 104.232 42.1246C104.2 42.0572 104.183 41.985 104.183 41.9121ZM96.206 72.4335V68.9892C96.2059 68.9163 96.2223 68.8441 96.2543 68.7767C96.2863 68.7093 96.3332 68.6481 96.3923 68.5966C96.4514 68.545 96.5216 68.5041 96.5988 68.4762C96.6761 68.4483 96.7589 68.434 96.8425 68.434H100.791C100.875 68.434 100.957 68.4483 101.035 68.4762C101.112 68.5041 101.182 68.545 101.241 68.5966C101.3 68.6481 101.347 68.7093 101.379 68.7767C101.411 68.8441 101.427 68.9163 101.427 68.9892V72.4335C101.427 72.5064 101.411 72.5786 101.379 72.646C101.347 72.7134 101.3 72.7746 101.241 72.8262C101.182 72.8777 101.112 72.9186 101.035 72.9465C100.957 72.9744 100.875 72.9887 100.791 72.9887H96.8425C96.7589 72.9887 96.6761 72.9744 96.5988 72.9465C96.5216 72.9186 96.4514 72.8777 96.3923 72.8262C96.3332 72.7746 96.2863 72.7134 96.2543 72.646C96.2223 72.5786 96.2059 72.5064 96.206 72.4335ZM87.202 64.5793V61.135C87.2019 61.0621 87.2184 60.9899 87.2503 60.9225C87.2823 60.8551 87.3292 60.7939 87.3883 60.7423C87.4474 60.6908 87.5176 60.6499 87.5948 60.622C87.6721 60.5941 87.7549 60.5798 87.8385 60.5798H91.7869C91.8705 60.5798 91.9533 60.5941 92.0306 60.622C92.1078 60.6499 92.178 60.6908 92.2371 60.7423C92.2962 60.7939 92.3431 60.8551 92.3751 60.9225C92.407 60.9899 92.4234 61.0621 92.4234 61.135V64.5793C92.4234 64.6522 92.407 64.7244 92.3751 64.7918C92.3431 64.8592 92.2962 64.9204 92.2371 64.972C92.178 65.0235 92.1078 65.0644 92.0306 65.0923C91.9533 65.1202 91.8705 65.1345 91.7869 65.1345H87.8385C87.7549 65.1345 87.6721 65.1202 87.5948 65.0923C87.5176 65.0644 87.4474 65.0235 87.3883 64.972C87.3292 64.9204 87.2823 64.8592 87.2503 64.7918C87.2184 64.7244 87.2019 64.6522 87.202 64.5793ZM107.598 70.3499V66.9057C107.598 66.8327 107.615 66.7605 107.647 66.6932C107.679 66.6258 107.726 66.5645 107.785 66.513C107.844 66.4614 107.914 66.4205 107.991 66.3926C108.068 66.3647 108.151 66.3504 108.235 66.3505H112.183C112.267 66.3504 112.35 66.3647 112.427 66.3926C112.504 66.4205 112.574 66.4614 112.633 66.513C112.693 66.5645 112.739 66.6258 112.771 66.6932C112.803 66.7605 112.82 66.8327 112.82 66.9057V70.3499C112.82 70.4228 112.803 70.495 112.771 70.5624C112.739 70.6298 112.693 70.691 112.633 70.7426C112.574 70.7942 112.504 70.8351 112.427 70.8629C112.35 70.8908 112.267 70.9052 112.183 70.9051H108.235C108.151 70.9052 108.068 70.8908 107.991 70.8629C107.914 70.8351 107.844 70.7942 107.785 70.7426C107.726 70.691 107.679 70.6298 107.647 70.5624C107.615 70.495 107.598 70.4228 107.598 70.3499ZM98.5946 62.4957V59.0515C98.5945 58.9785 98.6109 58.9063 98.6429 58.8389C98.6749 58.7716 98.7218 58.7103 98.7809 58.6588C98.84 58.6072 98.9102 58.5663 98.9874 58.5384C99.0647 58.5105 99.1474 58.4962 99.231 58.4962H103.179C103.263 58.4962 103.346 58.5105 103.423 58.5384C103.5 58.5663 103.571 58.6072 103.63 58.6588C103.689 58.7103 103.736 58.7716 103.768 58.8389C103.8 58.9063 103.816 58.9785 103.816 59.0515V62.4957C103.816 62.5686 103.8 62.6408 103.768 62.7082C103.736 62.7756 103.689 62.8368 103.63 62.8884C103.571 62.94 103.5 62.9808 103.423 63.0087C103.346 63.0366 103.263 63.051 103.179 63.0509H99.231C99.1474 63.051 99.0647 63.0366 98.9874 63.0087C98.9102 62.9808 98.84 62.94 98.7809 62.8884C98.7218 62.8368 98.6749 62.7756 98.6429 62.7082C98.6109 62.6408 98.5945 62.5686 98.5946 62.4957ZM89.5906 54.6415V51.1973C89.5905 51.1243 89.607 51.0521 89.6389 50.9847C89.6709 50.9174 89.7178 50.8561 89.7769 50.8046C89.836 50.753 89.9062 50.7121 89.9834 50.6842C90.0607 50.6563 90.1435 50.642 90.2271 50.6421H94.1755C94.2591 50.642 94.3419 50.6563 94.4191 50.6842C94.4964 50.7121 94.5666 50.753 94.6257 50.8046C94.6848 50.8561 94.7317 50.9174 94.7636 50.9847C94.7956 51.0521 94.812 51.1243 94.812 51.1973V54.6415C94.812 54.7144 94.7956 54.7866 94.7636 54.854C94.7317 54.9214 94.6848 54.9826 94.6257 55.0342C94.5666 55.0857 94.4964 55.1266 94.4191 55.1545C94.3419 55.1824 94.2591 55.1968 94.1755 55.1967H90.2271C90.1435 55.1968 90.0607 55.1824 89.9834 55.1545C89.9062 55.1266 89.836 55.0857 89.7769 55.0342C89.7178 54.9826 89.6709 54.9214 89.6389 54.854C89.607 54.7866 89.5905 54.7144 89.5906 54.6415ZM85.808 44.5271V46.7873C85.8081 46.8602 85.7916 46.9324 85.7596 46.9998C85.7277 47.0672 85.6808 47.1284 85.6217 47.18C85.5626 47.2315 85.4924 47.2724 85.4151 47.3003C85.3379 47.3282 85.2551 47.3425 85.1715 47.3425H83.6212C84.2574 46.3517 84.989 45.4099 85.808 44.5271ZM83.4194 53.2808V56.7251C83.4195 56.798 83.403 56.8702 83.3711 56.9376C83.3391 57.005 83.2922 57.0662 83.2331 57.1178C83.174 57.1693 83.1038 57.2102 83.0266 57.2381C82.9493 57.266 82.8665 57.2803 82.7829 57.2803H80.6911C80.6818 55.7482 80.872 54.2202 81.2581 52.7256H82.7829C82.8665 52.7256 82.9493 52.7399 83.0266 52.7678C83.1038 52.7957 83.174 52.8366 83.2331 52.8882C83.2922 52.9397 83.3391 53.0009 83.3711 53.0683C83.403 53.1357 83.4195 53.2079 83.4194 53.2808ZM105.846 76.2882H109.795C109.878 76.2882 109.961 76.3025 110.039 76.3304C110.116 76.3583 110.186 76.3992 110.245 76.4508C110.304 76.5023 110.351 76.5635 110.383 76.6309C110.415 76.6983 110.431 76.7705 110.431 76.8434V77.2485C108.726 77.6434 106.974 77.8671 105.21 77.9152V76.8434C105.21 76.7705 105.226 76.6983 105.258 76.6309C105.29 76.5635 105.337 76.5023 105.396 76.4508C105.455 76.3992 105.526 76.3583 105.603 76.3304C105.68 76.3025 105.763 76.2882 105.846 76.2882ZM99.7644 34.6131H96.9907C98.036 33.7062 99.1778 32.8882 100.401 32.1701V34.0579C100.401 34.1308 100.385 34.203 100.353 34.2704C100.321 34.3378 100.274 34.399 100.215 34.4506C100.155 34.5021 100.085 34.543 100.008 34.5709C99.9308 34.5988 99.848 34.6131 99.7644 34.6131ZM112.605 28.7643V31.2662C112.605 31.3392 112.589 31.4114 112.557 31.4788C112.525 31.5461 112.478 31.6074 112.419 31.6589C112.36 31.7105 112.29 31.7514 112.213 31.7793C112.135 31.8072 112.052 31.8215 111.969 31.8214H108.02C107.937 31.8215 107.854 31.8072 107.777 31.7793C107.7 31.7514 107.629 31.7105 107.57 31.6589C107.511 31.6074 107.464 31.5461 107.432 31.4788C107.4 31.4114 107.384 31.3392 107.384 31.2662V29.4182C109.09 29.0275 110.842 28.8081 112.605 28.7643ZM135.032 50.8292H137.008C136.893 52.3742 136.574 53.9025 136.058 55.3839H135.032C134.949 55.3839 134.866 55.3696 134.789 55.3417C134.711 55.3138 134.641 55.2729 134.582 55.2214C134.523 55.1698 134.476 55.1086 134.444 55.0412C134.412 54.9738 134.396 54.9016 134.396 54.8287V51.3844C134.396 51.3115 134.412 51.2393 134.444 51.1719C134.476 51.1046 134.523 51.0433 134.582 50.9918C134.641 50.9402 134.711 50.8993 134.789 50.8714C134.866 50.8435 134.949 50.8292 135.032 50.8292Z" fill="#FFC136"/>
<path d="M98.7393 65.9733L99.4928 65.6579L100.399 65.285L100.973 65.0493C101.074 65.0071 101.185 64.9644 101.286 64.9191L101.566 64.7771C101.983 64.5645 102.402 64.3546 102.822 64.1474C103.261 63.9343 103.785 63.6579 104.327 63.3747C104.87 63.0899 105.445 62.7985 106.036 62.4543L107.412 61.6866L107.883 61.4033C109.152 60.6532 110.482 59.798 111.845 58.8683L112.873 58.1584C113.218 57.9191 113.558 57.6552 113.905 57.4059C114.25 57.1498 114.601 56.9065 114.946 56.6363L115.985 55.8278C116.334 55.5623 116.677 55.2774 117.024 54.9942L118.062 54.1435L119.089 53.2546L119.603 52.8091L120.111 52.3491C121.477 51.1468 122.793 49.8396 124.09 48.5489C124.732 47.8882 125.37 47.237 125.988 46.5604C126.614 45.9033 127.22 45.2162 127.822 44.5546C128.415 43.869 129.003 43.2086 129.57 42.5246C130.144 41.8583 130.698 41.1788 131.241 40.517C131.513 40.1866 131.778 39.8467 132.042 39.5182C132.305 39.1914 132.564 38.8623 132.819 38.5308L133.577 37.5623L134.311 36.6034C134.792 35.9755 135.255 35.3467 135.703 34.7461C136.151 34.1349 136.577 33.5496 137.006 32.986C137.858 31.8723 138.695 30.8634 139.486 30.0018C139.857 29.5933 140.24 29.1924 140.633 28.7997C141.003 28.427 141.357 28.0977 141.679 27.8008C142.341 27.1962 142.893 26.7506 143.302 26.4404C143.703 26.1353 143.935 25.989 143.935 25.989C153.856 19.7554 167.692 21.7176 174.838 30.3719C180.478 37.2022 180.265 46.1594 175.048 52.6961L174.933 52.8305C174.933 52.8305 174.773 53.0293 174.439 53.371C174.113 53.7079 173.587 54.2113 172.876 54.8142C172.51 55.12 172.103 55.4578 171.645 55.8114C171.139 56.2011 170.623 56.5809 170.098 56.9505C168.955 57.7522 167.612 58.6196 166.042 59.5148C164.478 60.4045 162.707 61.326 160.829 62.3007C158.955 63.2758 156.917 64.2697 154.794 65.2639C152.666 66.2602 150.419 67.2432 148.109 68.1907C145.786 69.1339 143.398 70.039 140.967 70.8699C140.364 71.0817 139.744 71.2774 139.136 71.4793C138.527 71.6804 137.918 71.8761 137.297 72.0594L135.456 72.6113L133.607 73.1251L132.691 73.3757L131.766 73.6064L129.936 74.0553L128.113 74.46L127.214 74.6557C126.916 74.7197 126.611 74.773 126.312 74.8314L124.536 75.1659C123.952 75.2764 123.359 75.3622 122.783 75.4577C122.204 75.5491 121.638 75.6432 121.07 75.7192L119.388 75.935C117.183 76.216 115.079 76.3674 113.155 76.4737C111.225 76.5696 109.468 76.6119 107.908 76.5744C107.129 76.5638 106.42 76.5577 105.702 76.5263C105.065 76.5046 104.427 76.477 103.791 76.4434L103.374 76.422C103.247 76.4117 103.137 76.3967 103.023 76.3848L102.393 76.3149L101.4 76.2033L100.571 76.1055C97.2122 75.7088 94.8576 73.0118 95.3126 70.0815C95.5977 68.2417 96.9601 66.7321 98.7393 65.9733Z" fill="#FF473E"/>
<path d="M157.09 34.6939L155.974 35.2814C155.896 35.3211 155.85 35.3506 155.794 35.3834L155.623 35.4849L155.242 35.7062L155.033 35.8254L154.799 35.9815C154.483 36.2017 154.123 36.4156 153.768 36.6954L153.211 37.1103C153.022 37.2548 152.835 37.4154 152.64 37.572C152.249 37.8804 151.86 38.2353 151.459 38.5864C151.258 38.7624 151.062 38.954 150.861 39.1391C150.661 39.3257 150.459 39.512 150.261 39.7094L149.664 40.2928L149.072 40.8885L147.911 42.0708C147.528 42.4617 147.159 42.839 146.792 43.203C146.436 43.5639 146.068 43.9101 145.739 44.2262C145.425 44.5181 145.105 44.8056 144.78 45.0886C144.468 45.3431 144.207 45.5639 143.973 45.7427L143.202 46.2949C142.825 46.5665 142.344 46.7044 141.855 46.6815C141.366 46.6586 140.905 46.4765 140.562 46.1712C140.22 45.8659 140.021 45.4597 140.006 45.0328C139.991 44.606 140.159 44.1897 140.479 43.8661L140.624 43.7198L141.087 43.2501C141.233 43.0936 141.407 42.8833 141.608 42.6562C141.832 42.3803 142.052 42.1016 142.268 41.8203C142.505 41.4953 142.764 41.1554 143.033 40.7657C143.303 40.3871 143.59 39.9705 143.886 39.5412L144.817 38.1936L145.308 37.4927L145.822 36.782C145.99 36.5445 146.172 36.3073 146.352 36.0707C146.534 35.8344 146.706 35.5974 146.894 35.3647C147.272 34.8997 147.632 34.4378 148.026 34.0009C148.22 33.7817 148.403 33.5633 148.598 33.3544L149.18 32.745C149.548 32.3436 149.956 31.9882 150.309 31.6488L150.575 31.4012L150.867 31.1584L151.411 30.7113L151.661 30.5083C151.741 30.4432 151.824 30.3757 151.88 30.3353L152.87 29.5952C154.386 28.4607 156.67 28.6135 157.971 29.9364C159.271 31.2593 159.096 33.2516 157.579 34.386C157.433 34.4958 157.276 34.5953 157.111 34.6834L157.09 34.6939Z" fill="#FF6E83"/>
<path d="M201.402 28.1759L200.282 27.0451C200.112 26.8753 199.898 26.7005 199.678 26.5035C199.453 26.31 199.222 26.0933 198.951 25.8767L198.059 25.2039C197.979 25.1458 197.904 25.0833 197.817 25.0271L197.553 24.8575L197.005 24.5083C196.254 24.0388 195.367 23.5919 194.374 23.1993C194.254 23.1451 194.125 23.1022 193.994 23.0611L193.6 22.9338L193.201 22.8068C193.067 22.7607 192.93 22.7227 192.791 22.6932L191.941 22.5009C191.869 22.4856 191.798 22.4681 191.725 22.4546L191.504 22.4232L191.06 22.3618C190.762 22.3209 190.463 22.2763 190.158 22.2688C189.854 22.2538 189.547 22.234 189.239 22.2266L188.314 22.2527L188.082 22.2607L187.852 22.2839L187.392 22.3319C186.168 22.4708 184.959 22.7334 183.834 23.1106C182.707 23.4832 181.626 23.9219 180.633 24.4242C180.092 24.6955 179.559 24.9799 179.036 25.2769C175.296 22.3364 170.075 21.4545 165.428 22.7768C165.416 22.8206 165.429 22.8551 165.412 22.9001C164.975 24.0698 164.614 25.2884 170.414 30.794C176.214 36.2996 181.52 41.0984 182.462 39.0312C184.019 35.6145 183.959 31.7152 181.889 28.414C182.221 28.2729 182.555 28.1371 182.893 28.0069C183.763 27.6673 184.652 27.4151 185.517 27.223C186.383 27.0253 187.224 26.9473 188.004 26.9449L188.295 26.946L188.439 26.9455L188.579 26.9593C188.765 26.9772 188.949 26.9927 189.13 27.0057L189.653 27.0956C189.827 27.1151 189.991 27.1666 190.153 27.2104L190.395 27.2729L190.515 27.3025C190.554 27.3153 190.593 27.3315 190.631 27.3456C190.785 27.4037 190.936 27.4585 191.086 27.51C191.123 27.5235 191.161 27.5339 191.197 27.5496L191.305 27.602L191.518 27.7033L191.728 27.7998C191.798 27.8295 191.867 27.8607 191.933 27.9043C192.47 28.2047 192.961 28.5263 193.397 28.8831L193.716 29.1463L193.87 29.2712C193.921 29.3126 193.967 29.3647 194.015 29.4096L194.554 29.9296C194.721 30.0986 194.867 30.2789 195.008 30.4313C195.146 30.5901 195.279 30.7217 195.389 30.8628L196.076 31.7443C196.148 31.8359 196.228 31.9271 196.313 32.0129C197.527 33.2387 199.651 33.3735 201.056 32.3141C202.462 31.2545 202.617 29.4019 201.402 28.1759Z" fill="#00B89C"/>
<path d="M63.0453 44.6195C62.9864 44.6195 62.9271 44.6171 62.8672 44.6124C61.8135 44.5278 61.0383 43.7141 61.1354 42.7951C62.3628 31.1769 67.8557 25.7553 72.702 20.9719C76.0895 17.6283 78.8616 14.8925 79.744 10.5529C79.9225 7.83275 80.1047 7.4956 80.1915 7.33483C80.5807 6.61421 81.5041 6.2289 82.3906 6.42058C83.0659 6.56663 83.8544 7.10627 83.855 8.14624C83.855 8.24472 83.8509 8.37227 83.8422 8.53637C83.7986 9.36409 83.704 10.1476 83.5643 10.8918C83.375 13.7655 83.2098 18.6996 83.5809 23.8004C84.2598 33.1334 86.4652 39.4569 89.7905 41.6055C90.6405 42.155 90.8193 43.2015 90.1895 43.9431C89.5596 44.6848 88.3598 44.8406 87.5097 44.2912C83.0583 41.4148 80.4367 34.3997 79.7177 23.4407C79.6167 21.9039 79.5622 20.4105 79.5391 19.0104C78.3306 20.4634 76.9649 21.8113 75.573 23.1852C70.8977 27.7998 66.0632 32.5715 64.9507 43.1018C64.859 43.9685 64.0239 44.6195 63.0453 44.6195Z" fill="#F01919"/>
<path d="M91.9705 63.7661C100.644 63.7661 107.676 57.6326 107.676 50.0665C107.676 42.5005 100.644 36.367 91.9705 36.367C83.2969 36.367 76.2655 42.5005 76.2655 50.0665C76.2655 57.6326 83.2969 63.7661 91.9705 63.7661Z" fill="#D81637"/>
<path d="M84.2118 45.7863C83.7298 45.7863 83.2436 45.6559 82.8271 45.3858C81.798 44.7179 81.5842 43.4485 82.35 42.5507C83.7443 40.9158 85.7878 39.6759 88.104 39.0594C89.331 38.7327 90.6291 39.3357 91.0036 40.406C91.3781 41.4763 90.6869 42.6086 89.4599 42.9353C88.0853 43.3013 86.884 44.0237 86.0772 44.9695C85.6213 45.504 84.9211 45.7863 84.2118 45.7863Z" fill="#EF5454"/>
<path d="M106.95 22.9178C106.95 22.9178 106.788 22.8882 106.507 22.8201C106.114 22.7242 105.725 22.6147 105.342 22.4921L105.157 22.433L104.967 22.3893C104.836 22.3613 104.71 22.3265 104.575 22.295C104.299 22.2269 104.023 22.1569 103.748 22.0849C103.44 22.0094 103.133 21.9308 102.828 21.8494C102.668 21.8111 102.52 21.7582 102.355 21.7236C102.189 21.6889 102.032 21.6466 101.867 21.609C101.703 21.5718 101.545 21.5276 101.383 21.4868L100.888 21.3811C100.725 21.3474 100.562 21.3105 100.4 21.2705C100.321 21.2495 100.235 21.2405 100.152 21.2251L99.9086 21.1781L99.4258 21.0837C99.2646 21.0605 99.104 21.0348 98.944 21.0065C98.8654 20.9922 98.786 20.9792 98.7092 20.9635C98.6318 20.9487 98.5493 20.9429 98.4711 20.931C98.3155 20.9099 98.1604 20.8862 98.0059 20.8597C97.8522 20.8359 97.6921 20.8239 97.541 20.8001C97.4651 20.79 97.3894 20.7787 97.314 20.7661C97.2388 20.7541 97.1577 20.7504 97.0814 20.7401C96.9263 20.7227 96.7761 20.7008 96.6249 20.6788C96.469 20.664 96.3136 20.6454 96.1588 20.6232C95.5311 20.5483 94.8939 20.4591 94.1858 20.3552C93.8217 20.3073 93.4672 20.2447 93.0716 20.1841L92.4784 20.0831C92.3762 20.0666 92.2753 20.0449 92.1738 20.0259L91.8617 19.9634C91.0307 19.7911 90.1048 19.5595 89.1611 19.2429C88.6762 19.081 88.1992 18.9016 87.7314 18.7051C87.4896 18.6014 87.25 18.4939 87.0127 18.3826C86.78 18.2736 86.5332 18.1442 86.3042 18.0231L85.9622 17.8359L85.6188 17.6303C85.3936 17.4877 85.1801 17.3546 84.9654 17.208C84.7578 17.0579 84.5525 16.9056 84.3494 16.751C84.2507 16.6741 84.1545 16.5949 84.0609 16.5133C83.9665 16.4307 83.8721 16.3529 83.7834 16.2689L83.5214 16.0239C83.4359 15.9438 83.3522 15.8652 83.2739 15.7754C83.1162 15.601 82.9631 15.4367 82.8252 15.2661C82.7558 15.1813 82.6872 15.1007 82.6227 15.0162C82.5583 14.931 82.4997 14.8416 82.4408 14.7568C82.3269 14.5929 82.2191 14.4259 82.1174 14.2561C82.0143 14.0988 81.9366 13.9241 81.8588 13.7651C81.7805 13.6062 81.7158 13.4462 81.6529 13.2981C81.621 13.2244 81.5948 13.148 81.5691 13.0745L81.5039 12.8525C81.4637 12.7075 81.4234 12.575 81.3949 12.4427C81.2707 11.9221 81.2625 11.489 81.2666 11.1935C81.2665 11.048 81.2773 10.9314 81.2844 10.8536L81.2952 10.7365C81.3144 10.5291 81.4184 10.3346 81.5882 10.1884C81.758 10.0422 81.9823 9.95414 82.2204 9.94016L82.4558 9.92648C82.5427 9.92085 82.672 9.91131 82.8264 9.90534C83.146 9.88316 83.5633 9.88488 84.078 9.82881C84.33 9.80536 84.5812 9.79778 84.8675 9.75009C85.1466 9.71067 85.4214 9.67884 85.7082 9.62851C86.0041 9.56795 86.2726 9.53152 86.5691 9.46039C86.7167 9.42431 86.8564 9.39799 86.9983 9.36478C87.1381 9.3333 87.2901 9.29595 87.4337 9.25987C87.5808 9.22298 87.7106 9.19977 87.867 9.1561L88.3075 9.05199C88.4521 9.02246 88.6142 8.9835 88.7649 8.95017L89.2356 8.85721L89.4774 8.81446L89.7252 8.77482C90.2742 8.69049 90.8286 8.63519 91.3852 8.60923C92.192 8.57291 93.0836 8.5867 94.0939 8.69231L94.2791 8.71138L94.4731 8.73598C94.6024 8.75356 94.7325 8.76838 94.8618 8.78849C94.9919 8.80826 95.1193 8.82549 95.2521 8.84756L95.658 8.9203C96.191 9.01476 96.7607 9.14174 97.3204 9.28342C98.5061 9.58814 99.6535 9.99659 100.745 10.5025C101.022 10.6348 101.297 10.7709 101.569 10.9107C101.838 11.0576 102.102 11.2127 102.361 11.3664C102.49 11.444 102.618 11.5199 102.743 11.6022C102.868 11.685 102.991 11.77 103.112 11.8546C103.354 12.0243 103.594 12.1911 103.82 12.3687C104.041 12.5479 104.259 12.7301 104.473 12.9153C104.578 13.0072 104.684 13.0967 104.782 13.1916C104.881 13.2866 104.976 13.3838 105.071 13.4792C105.257 13.6673 105.439 13.8582 105.618 14.052C105.789 14.2449 105.941 14.4474 106.095 14.6412C106.248 14.8354 106.398 15.0269 106.529 15.2237C106.658 15.4206 106.782 15.6151 106.896 15.8099C107.01 16.0042 107.128 16.1896 107.223 16.3823C107.316 16.5758 107.408 16.7616 107.488 16.9497C107.569 17.1372 107.651 17.3154 107.72 17.4963C107.758 17.5851 107.786 17.676 107.815 17.7649C107.845 17.8535 107.874 17.9413 107.899 18.0294C108 18.3583 108.088 18.69 108.164 19.024C108.23 19.3527 108.278 19.6596 108.313 19.9425C108.328 20.0853 108.347 20.2177 108.354 20.3494L108.366 20.5398L108.36 20.7117C108.348 21.0678 108.319 21.4233 108.274 21.7774C108.241 22.031 108.213 22.173 108.213 22.173C108.188 22.2926 108.137 22.407 108.062 22.5095C107.988 22.612 107.89 22.7006 107.776 22.7703C107.662 22.8399 107.533 22.8893 107.397 22.9156C107.261 22.9418 107.121 22.9444 106.983 22.9232C106.974 22.922 106.96 22.9194 106.95 22.9178Z" fill="#2FEA08"/>
<path d="M63.043 59.7107C71.7167 59.7107 78.7481 53.5772 78.7481 46.0111C78.7481 38.4451 71.7167 32.3116 63.043 32.3116C54.3694 32.3116 47.338 38.4451 47.338 46.0111C47.338 53.5772 54.3694 59.7107 63.043 59.7107Z" fill="#E84951"/>
<path d="M55.1524 41.1559C54.6703 41.1559 54.1842 41.0255 53.7678 40.7552C52.7386 40.0873 52.525 38.8181 53.2907 37.9202C54.6852 36.2853 56.7287 35.0455 59.0447 34.429C60.2714 34.1026 61.5697 34.7052 61.9442 35.7755C62.3187 36.8458 61.6275 37.9782 60.4005 38.3049C59.026 38.6708 57.8247 39.3932 57.0178 40.3392C56.5619 40.8736 55.8616 41.1559 55.1524 41.1559Z" fill="#F10F0F"/>
<path fill-rule="evenodd" clip-rule="evenodd" d="M71.7038 114.38C79.9957 114.067 86.8763 118.168 87.0988 123.535L122.372 122.582C123.527 122.551 124.474 122.948 124.49 123.47C124.507 123.992 123.587 124.439 122.433 124.47L86.8971 125.429C85.7199 130.023 79.6632 133.705 72.2841 133.983C63.9548 134.297 57.047 130.156 56.8869 124.751C56.7269 119.346 63.3745 114.694 71.7038 114.38ZM82.988 123.767C82.8715 119.833 77.8445 116.821 71.7828 117.049C65.7211 117.278 60.8857 120.662 61.0019 124.595C61.1184 128.529 66.1433 131.542 72.205 131.314C78.2667 131.085 83.1043 127.701 82.988 123.767Z" fill="#37AA1B"/>
<path fill-rule="evenodd" clip-rule="evenodd" d="M154.195 113.982C162.527 113.668 169.435 117.81 169.595 123.215C169.754 128.619 163.107 133.272 154.776 133.586C146.447 133.9 139.538 129.758 139.378 124.353C139.218 118.949 145.866 114.296 154.195 113.982ZM165.479 123.369C165.363 119.436 160.336 116.423 154.274 116.652C148.215 116.88 143.377 120.265 143.494 124.199C143.61 128.132 148.635 131.145 154.697 130.916C160.758 130.688 165.595 127.303 165.479 123.369Z" fill="#37AA1B"/>
<path d="M168.686 103.025C169.839 102.988 170.786 103.47 170.805 104.103C170.825 104.737 169.909 105.28 168.757 105.317L41.5591 109.469C34.7849 109.69 29.3657 112.901 29.481 116.626C29.5965 120.351 35.2037 123.202 41.9779 122.981C43.1281 122.943 44.0778 123.425 44.0974 124.058C44.117 124.692 43.1995 125.235 42.0493 125.272C32.9765 125.568 25.468 121.751 25.3133 116.762C25.1587 111.773 32.4136 107.473 41.4884 107.177L168.686 103.025Z" fill="#37AA1B"/>
<path d="M13.0001 44.8562C22.7588 44.5021 31.2187 48.5025 33.571 54.5857L51.9877 102.217L56.387 102.057L41.7983 52.4961L147.475 51.0675L177.206 49.9892C177.81 49.9673 178.384 50.1253 178.767 50.4156C179.152 50.7071 179.308 51.1009 179.182 51.4867L163.866 99.7257C163.802 99.9281 163.666 100.112 163.479 100.269L163.203 101.291L139.363 101.613L50.4866 104.838C49.5618 104.871 48.7468 104.486 48.5252 103.91L29.7264 55.2952C27.8234 50.3716 20.976 47.1346 13.0771 47.4211L2.65121 47.7992C1.558 47.8388 0.652982 47.2967 0.631487 46.5889C0.610182 45.8811 1.48034 45.2745 2.57355 45.2348L13.0001 44.8562Z" fill="#37AA1B"/>
<path d="M86.2523 22.6312C86.2793 22.5357 86.3357 22.5071 86.3785 22.5671C86.5224 22.7701 86.6178 22.9389 86.6884 23.1229C86.6912 23.1207 86.6943 23.1186 86.6974 23.1163C86.7048 23.1109 86.7129 23.1047 86.7217 23.0994C86.7303 23.0932 86.7407 23.0887 86.7515 23.0848C86.7729 23.0761 86.7978 23.0669 86.8243 23.0637C86.8379 23.0621 86.8516 23.0613 86.8652 23.0612C86.8795 23.0607 86.8945 23.0618 86.9096 23.0655C86.9247 23.0684 86.9407 23.0723 86.9567 23.077C86.9724 23.0822 86.9883 23.0907 87.0045 23.0987L87.0295 23.1127C87.0378 23.1177 87.0462 23.1242 87.0545 23.1302C87.0628 23.1362 87.0712 23.1428 87.0794 23.1496C87.0875 23.1564 87.0958 23.1622 87.1037 23.1707C87.12 23.1869 87.1367 23.2042 87.1529 23.2221C87.1611 23.2306 87.1687 23.2413 87.1765 23.2512C87.1843 23.2614 87.1924 23.2713 87.2001 23.282C87.2158 23.3025 87.2299 23.3267 87.2444 23.3503C87.259 23.3731 87.2729 23.398 87.286 23.4247C87.299 23.4509 87.3121 23.4773 87.3235 23.5052L87.3408 23.5469L87.3568 23.5892C87.3669 23.6181 87.3757 23.6479 87.3845 23.6769L87.397 23.7205L87.4081 23.7646C87.4149 23.793 87.4213 23.822 87.4275 23.8511C87.4328 23.8789 87.4381 23.9069 87.4427 23.9352C87.4519 23.99 87.4582 24.0427 87.4629 24.0906C87.4652 24.1144 87.4667 24.138 87.4684 24.159C87.4697 24.1807 87.471 24.2012 87.4719 24.2195C87.4732 24.2563 87.4734 24.286 87.4733 24.3072V24.3398C87.4731 24.347 87.4719 24.3545 87.4705 24.361C87.4691 24.3672 87.4673 24.3728 87.4649 24.3773C87.4624 24.3819 87.459 24.3851 87.4559 24.387C87.4529 24.3888 87.45 24.3893 87.4469 24.3882L87.4427 24.387C87.4403 24.3861 87.4362 24.3844 87.4317 24.3822C87.4224 24.3781 87.4098 24.3709 87.3942 24.361C87.3762 24.3486 87.3578 24.3351 87.3401 24.3205C87.3204 24.3037 87.2997 24.2825 87.2777 24.26C87.2666 24.2482 87.2553 24.2361 87.2444 24.2231C87.2331 24.2103 87.2215 24.1966 87.2105 24.1826L87.1772 24.1384L87.1606 24.1154C87.1551 24.1075 87.1495 24.0987 87.1439 24.0912L87.128 24.067L87.1113 24.0422L87.0794 23.9914C87.0788 23.9905 87.0786 23.9894 87.078 23.9884C87.0993 24.0745 87.1185 24.1625 87.1321 24.2515C87.1479 24.3522 87.1583 24.4569 87.1633 24.563C87.1656 24.6116 87.1664 24.6575 87.1661 24.6997C87.1662 24.7413 87.1653 24.7794 87.164 24.811C87.1624 24.843 87.1608 24.869 87.1592 24.8872C87.1585 24.896 87.1576 24.903 87.1571 24.9077L87.1564 24.915C87.1549 24.9296 87.152 24.9435 87.1481 24.9555C87.1441 24.9676 87.1386 24.9776 87.1328 24.9851C87.127 24.9926 87.1207 24.9974 87.1141 24.9991C87.1075 25.0007 87.1011 24.9992 87.0947 24.9948L87.0912 24.993C87.0882 24.991 87.0852 24.9887 87.0822 24.9864C87.0744 24.9804 87.0635 24.9708 87.0503 24.9579C87.0374 24.9446 87.022 24.9275 87.0059 24.9065C86.9895 24.8861 86.9723 24.8612 86.9546 24.8327C86.916 24.7701 86.8804 24.6976 86.8492 24.6168C86.8198 24.5415 86.7942 24.4551 86.7702 24.3652C86.77 24.3672 86.7691 24.3693 86.7688 24.3713L86.7626 24.4196C86.7603 24.4358 86.7582 24.4522 86.7563 24.4686C86.7521 24.5014 86.7479 24.5345 86.7432 24.5666C86.739 24.5988 86.7345 24.6309 86.73 24.6628C86.7204 24.726 86.7124 24.7897 86.7023 24.8491C86.6928 24.909 86.6825 24.9666 86.6724 25.0196C86.6629 25.0724 86.6536 25.1212 86.644 25.1648C86.6346 25.2082 86.6262 25.249 86.6184 25.2809C86.6124 25.3061 86.6063 25.331 86.5996 25.3553L86.592 25.3819C86.59 25.3887 86.5869 25.3944 86.5837 25.3982C86.5805 25.402 86.5769 25.4044 86.5733 25.4043C86.5696 25.4041 86.5654 25.4012 86.5622 25.397C86.5591 25.3928 86.5564 25.387 86.5546 25.3801L86.5476 25.3529C86.5415 25.3278 86.5357 25.302 86.5303 25.2761C86.5269 25.2595 86.5228 25.2409 86.5192 25.221C86.5154 25.2012 86.5116 25.1795 86.5081 25.1557C86.4996 25.1032 86.4917 25.05 86.4852 24.996C86.4787 24.9374 86.4721 24.8735 86.4672 24.8055C86.4649 24.7715 86.4635 24.7362 86.4617 24.7003L86.4589 24.6452L86.4575 24.5896C86.4569 24.552 86.4566 24.5135 86.4568 24.4747C86.4571 24.4356 86.4579 24.396 86.4589 24.3561C86.4597 24.3164 86.4622 24.2761 86.4644 24.2358C86.4666 24.1954 86.4689 24.1546 86.4728 24.1142C86.4794 24.0334 86.4894 23.9535 86.5005 23.8759C86.5128 23.799 86.5267 23.7242 86.5435 23.6558L86.556 23.605C86.5603 23.5887 86.5647 23.5729 86.5691 23.5572C86.5748 23.5379 86.5807 23.5187 86.5865 23.5003C86.5227 23.2904 86.4358 23.1336 86.2807 22.9149C86.2378 22.8544 86.2252 22.7271 86.2523 22.6312Z" fill="#37AA1B"/>
</svg>
